<?xml version="1.0" encoding="utf-8"?>
<!-- Generator: Adobe Illustrator 23.0.6, SVG Export Plug-In . SVG Version: 6.00 Build 0)  -->
<svg version="1.1" id="Layer_1" xmlns="http://www.w3.org/2000/svg" xmlns:xlink="http://www.w3.org/1999/xlink" x="0px" y="0px"
	 viewBox="0 0 1200 1200" enable-background="new 0 0 1200 1200" xml:space="preserve">
<g>
	<g>
		<g>
			<path fill="#F0CAB9" d="M609.288,262.802c69.915-4.433,262.552,39.886,254.695,227.105c0,0,34.181-25.776,34.278,30.469
				s-49.009,27.016-49.009,27.016s-37.814,134.186-217.297,143.09l-20.286,22.654l-24.786-22.654c0,0-154.762-0.114-216.909-137.433
				c0,0-40.368,25.103-46.279-33.295c-5.911-50.186,31.547-28.997,31.547-28.997S323.164,280.942,609.288,262.802z"/>
			<path fill="#F7E3CF" d="M422.025,854.303c0,0-7.857-36.978-28.482-50.278c0,0-32.34,16.625-11.751,50.278
				C397.67,875.188,422.025,854.303,422.025,854.303z"/>
			<path fill="#F7E3CF" d="M798.18,855.809c0,0,3.928-37.272,28.482-45.286c0,0,30.089,14.005,14.732,36.892
				S798.18,855.809,798.18,855.809z"/>
		</g>
		<g>
			<path fill="#F7E3CF" d="M511.235,652.654c63.429,35.52,144.618,25.372,208.048-12.686
				c68.503-40.595,83.726-126.858,88.801-202.973c3.787-40.392-5.618-78.9-19.459-116.774
				c-59.743-46.609-139.478-59.946-179.337-57.419c-69.805,4.426-120.63,20.276-157.643,41.689
				C388.372,418.288,388.09,587.596,511.235,652.654z"/>
		</g>
	</g>
	<g>
		<path fill="#4F2813" d="M355.24,490.758c0,0-36.005-201.959,254.047-227.956c276.302,15.407,254.695,227.105,254.695,227.105
			s43.214,8.154,42.232-128.858s-109.505-177.279-136.76-175.315c0,0-46.476-94.284-165.033-94.284s-151.95,97.983-151.95,97.983
			s-104.209-4.68-132.148,129.871C292.384,453.855,341.491,492.305,355.24,490.758z"/>
		<g>
			<path fill="#5C331D" d="M844.502,218.569c-17.126-14.294-35.01-23.328-49.623-28.231c6.796,41.11-12.041,78.255-36.159,110.515
				c50.672,27.989,77.218,66.847,91.03,102.061C875.078,344.535,873.015,275.229,844.502,218.569z"/>
			<path fill="#5C331D" d="M618.915,127.206c-155.26,0-132.847,114.561-115.365,156.565c29.255-9.863,64.114-17.238,105.737-20.969
				c43.887,2.447,80.233,9.86,110.368,20.577C727.397,241.318,753.059,127.206,618.915,127.206z"/>
			<path fill="#5C331D" d="M427.425,192.468c-9.516,2.231-20.939,6.072-32.838,12.691c-36.445,52.767-50.843,119.642-20.438,180.129
				c15.396-29.772,42.024-60.419,87.519-83.948C436.602,271.366,422.812,230.687,427.425,192.468z"/>
		</g>
	</g>
	<g>
		<path fill="#7739B4" d="M611.668,765.542l81.014-83.731l28.553-8.799c0,0,35.156,38.833,58.284,80.371s42.45,50.641,42.45,50.641
			s-24.607,38.47-39.504,101.104c-14.897,62.635-57.413,107.557-74.375,112.467l-15.409,35.941c0,0-67.782,25.137-166.764,0
			l-20.412-38.887c0,0-42.582-15.288-69.731-109.521s-42.232-101.104-42.232-101.104s31.428-25.126,45.178-50.641
			c13.75-25.515,41.228-72.371,62.355-80.371l39.157,11.462l49.735,49.287C589.968,733.761,560.74,756.415,611.668,765.542z"/>
		<g>
			<path fill="#8B4DD1" d="M716.745,868.313c-60.892,38.057-152.23,45.669-208.048,0c-7.182,64.639,17.258,127.019,34.959,189.271
				c54.872,11.136,98.566,7.052,124.112,2.249C695.28,1000.114,726.681,937.862,716.745,868.313z"/>
			<path fill="#8B4DD1" d="M779.52,753.383c-13.992-25.129-32.375-49.252-44.723-64.402c-5.854,3.96-10.44,8.831-10.44,11.878
				c16.187,62.725,27.562,130.275,63.666,183.379c14.748-50.179,33.947-80.214,33.947-80.214S802.649,794.921,779.52,753.383z"/>
			<path fill="#8B4DD1" d="M478.709,691.592c-15.465,18.147-30.795,44.733-39.988,61.792c-13.75,25.515-45.178,50.641-45.178,50.641
				s10.723,4.889,30.36,62.906c31.971-37.016,39.507-91.41,64.497-135.625C497.424,715.064,487.195,703.956,478.709,691.592z"/>
		</g>
	</g>
	<g>
		<g>
			<path fill="#E5E0B9" d="M713.717,122.877V59.039c0,0,119.82-12.768,214.104,98.213c73.66,93.079,42.052,209.102,42.052,209.102
				h-63.642c0,0-7.381-168.834-136.777-180.62C769.454,185.733,748.575,147.063,713.717,122.877z"/>
			<path fill="#E5E0B9" d="M575.903,743.582c0,0,8.357,24.277,35.765,21.96l81.014-83.731l-60.728,8.671l-20.286,22.654
				l-24.786-22.654l-46.649-1.501l49.735,44.78L575.903,743.582z"/>
			<path fill="#E5E0B9" d="M681.798,1057.618c0,0-93.304,15.959-151.003,0c0,0,18.906,61.627,61.875,42.476
				C592.67,1100.094,633.183,1147.237,681.798,1057.618z"/>
		</g>
		<g>
			<path fill="#F7F4DB" d="M927.821,157.252C833.537,46.271,713.717,59.039,713.717,59.039v32.979
				c25.768,14.525,46.381,32.85,68.995,53.203c74.809,18.579,133.651,98.458,157.304,180.139
				c10.149,7.612,22.834,7.612,32.983,5.074c0.916-0.366,1.794-0.771,2.653-1.194C979.077,287.465,975.539,217.55,927.821,157.252z"
				/>
			<path fill="#F7F4DB" d="M631.954,690.482l-56.051,53.1c0,0,8.357,24.277,35.765,21.96l81.014-83.731L631.954,690.482z"/>
			<path fill="#F7F4DB" d="M600.306,1064.675c-5.227,11.641-8.337,24.002-7.034,36.067c5.17,5.338,43.346,40.164,88.526-43.124
				C681.798,1057.618,643.199,1064.208,600.306,1064.675z"/>
		</g>
	</g>
	<g>
		<path fill="#DB9D49" d="M514.345,746.529c0,0,79.103,43.214,193.746,0c0,0,24.585,40.571,17.552,94.927
			c0,0-112.368,73.869-233.856-5.618C491.787,835.838,484.881,803.492,514.345,746.529z"/>
		<path fill="#E4B54B" d="M574.513,763.64c-13.481,4.897-26.962,9.483-40.443,13.335c-23.482,6.404-21.819,41.544-22.211,70.666
			c87.049,45.788,166.309,17.712,198.535,2.133c-1.138-34.221-4.285-68.281-22.411-96.417
			C642.73,767.054,603.904,767.495,574.513,763.64z"/>
	</g>
	<g>
		<path fill="#AC1A16" d="M496.267,771.146l-8.931,32.878c0,0,102.559,75.095,246.691,0l-8.385-32.878
			C725.643,771.146,606.357,829.647,496.267,771.146z"/>
		<path fill="#C92424" d="M523.281,783.194c-6.55,10.071-8.025,22.527-9.906,35.017c36.02,15.93,106.874,34.925,196.344-2.774
			c-0.699-12-2.006-24.049-5.497-35.693C669.289,791.964,596.565,810.067,523.281,783.194z"/>
	</g>
	<g>
		<path fill="#502A1E" d="M540.233,1085.052c0,0-15.084,53.346,40.897,37.141c0,0,12.352,25.792,53.78,19.152
			c41.428-6.64,44.439-16.451,35.351-58.56c0,0-48.759,59.317-79.79,8.9C590.471,1091.685,572.504,1109.785,540.233,1085.052z"/>
		<path fill="#663728" d="M590.471,1091.685c0,0-0.217,0.215-0.622,0.553c-3.386,12.555-4.232,25.453-2.318,38.049
			c7.356,6.917,21.835,15.151,47.379,11.057c8.165-1.309,14.817-2.746,20.199-4.524c2.717-13.497,3.248-28.096,3.314-42.179
			C642.024,1108.844,611.988,1126.644,590.471,1091.685z"/>
	</g>
	<g>
		<ellipse fill="#F0B1A6" cx="484.586" cy="562.271" rx="44.25" ry="27.57"/>
		<ellipse fill="#F0B1A6" cx="730.691" cy="562.271" rx="44.25" ry="27.57"/>
	</g>
	<g>
		<path fill="#E5E0B9" d="M320.323,296.625c0,0-71.808-20.712-71.808-41.74s80.336,20.87,80.336,20.87L320.323,296.625z"/>
		<path fill="#F7F4DB" d="M248.516,254.886c0,8.45,11.602,16.847,25.474,23.871c1.767-8.222,4.115-16.308,7.116-24.144
			C263.842,248.522,248.516,245.701,248.516,254.886z"/>
	</g>
	<g>
		<path fill="#48C1D9" d="M311.87,354.332v22.916c0,0-84.745,13.486-89.328-7.362S311.87,354.332,311.87,354.332z"/>
		<path fill="#87ECFE" d="M261.79,354.523c-21.544,1.49-41.416,5.501-39.248,15.363c2.07,9.418,20.503,11.82,40.089,11.634
			C261.684,372.421,261.371,363.484,261.79,354.523z"/>
	</g>
	<g>
		<path fill="#F062A8" d="M318.574,446.652l5.119,21.881c0,0-65.356,42.724-78.451,24.826
			C232.147,475.461,318.574,446.652,318.574,446.652z"/>
		<path fill="#FF75B9" d="M245.242,493.359c6.477,8.852,25.736,2.871,43.551-5.433c-4.132-8.169-7.758-16.516-10.935-25.035
			C257.559,472.4,238.601,484.282,245.242,493.359z"/>
	</g>
	<g>
		<g>
			<path fill="#DEA6D8" d="M429.52,884.239c-3.279-15.74,33.971-45.632,49.577-23.904c0,0-4.803,46.975,0,64.797
				c0,0,25.873-11.727,51.698,31.572c25.825,43.299,34.321,33.392,34.321,33.392s40.567-65.518,76.906-52.892
				c36.339,12.625,32.44,44.011,50.66,29.305c18.22-14.706,25.305-42.543,45.883-29.305c0,0,11.554-31.546,0-60.749
				c-11.554-29.203,48.224-22.223,47.884,13.262c-0.34,35.484-37.825,118.058-78.358,127.879l-11.07,35.941
				c0,0-113.005,27.467-174.358-6.201l-17.157-32.686C505.506,1014.65,453.71,1000.343,429.52,884.239z"/>
			<path fill="#F0C7EB" d="M692.682,966.509c-18.22,14.706-14.321-16.68-50.66-29.305c-36.339-12.625-76.906,52.892-76.906,52.892
				s-8.496,9.906-34.321-33.392c-7.173-12.026-14.347-19.797-20.973-24.764c5.581,43.641,21.788,84.561,36.611,124.942
				c39.942,11.428,89.926,6.974,121.066,2.213c18.219-35.244,30.128-72.59,41.069-110.26
				C703.923,954.806,698.965,961.438,692.682,966.509z"/>
		</g>
		<g>
			<path fill="#F062A8" d="M764.952,931.742c-17.76,12.686-32.983,30.446-40.595,50.743c-2.537,2.537-10.149,0-12.686,2.537
				c-15.223,12.686-25.372,38.057-48.206,35.52c-17.76-5.074-20.297-32.983-38.057-32.983c-20.297,0-40.595,12.686-55.818,27.909
				c-7.612,5.074-17.76,2.537-25.372-2.537c-22.835-15.223-32.983-35.52-55.818-50.743c-10.149-5.074-15.223-22.835-20.297-38.057
				c-3.716-11.147-18.305-14.095-30.837-8.918c26.005,87.759,68.24,99.437,68.24,99.437l17.157,32.686
				c61.353,33.668,174.358,6.201,174.358,6.201l11.07-35.941c28.905-7.004,56.247-50.999,69.687-88.536
				C773.596,927.64,769.177,928.221,764.952,931.742z"/>
			<path fill="#FF75B9" d="M663.465,1020.543c-17.76-5.074-20.297-32.983-38.057-32.983c-20.297,0-40.595,12.686-55.818,27.909
				c-7.612,5.074-17.76,2.537-25.372-2.537c-8.446-5.631-15.153-11.957-21.412-18.462c3.469,21.282,11.712,40.557,18.315,60.789
				c42.495,14.044,98.466,8.381,130.484,3.193c5.369-15.969,11.519-31.677,16.593-47.744
				C681.443,1017.168,673.74,1021.684,663.465,1020.543z"/>
		</g>
	</g>
	<g>
		<g>
			<path fill="#FFE5B5" d="M688.022,971.666c-0.616-1.092-4.025-3.068-4.192-4.063c-0.5-2.976,4.049-5.233,1.713-9.712
				c-3.724-7.138-7.546-2.588-12.549-2.577c-3.411,0.008-6.906-5.402-11.758-2.568c-3.789,2.213-1.791,5.442-2.662,8.533
				c0.263,0.711,0.526,1.423,0.79,2.134c-1.202,0.515-2.284,1.237-3.246,2.165c-1.24,2.812-2.771,4.557-0.992,7.687
				c1.804,3.174,4.13,1.732,5.995,3.688c2.774,2.909,3.934,10.827,10.659,8.705c2.241-0.707,3.208-4.381,4.712-4.802
				c1.133-0.317,4.355,1.605,6.003,1.357C687.498,981.46,690.721,976.448,688.022,971.666z"/>
			<path fill="#FFE5B5" d="M546.959,910.981c-1.447-5.261-5.569-3.338-8.124-5.986c-2.083-2.158-0.097-6.199-4.068-8.136
				c-3.296-1.608-6.181,0.003-8.284,2.459c-0.849,1.314-1.532,2.709-2.048,4.185c-0.253,1.36-1.361,1.442-3.324,0.247
				c-4.496,2.345-6.196,2.143-6.117,8.029c0.031,2.315,1.358,3.392,1.337,5.316c-0.035,3.214-3.183,5.167-1.404,8.813
				c1.944,3.984,4.343,2.347,7.44,3.462c1.491-1.502,2.391-1.645,2.7-0.427c0.472,0.896,1.041,1.722,1.709,2.479
				c3.898,1.77,7.145,3.997,10.829-0.626c1.692-2.123,0.514-4.215,1.425-6.552c-1.114-1.697-1.053-2.602,0.183-2.715
				c1.368-0.312,2.681-0.771,3.939-1.377C545.629,917.36,548.131,915.238,546.959,910.981z"/>
		</g>
		<g>
			<path fill="#B7A1D9" d="M685.525,1028.673c-0.526-0.418-1.054-0.833-1.593-1.234c2.827-3.16,3.803-7.518,1.002-11.063
				c-2.385-3.018-6.779-3.837-10.193-2.24c-0.668,0.313-1.214,0.798-1.856,1.124c-1.309,0.665-0.258,0.59-1.442-0.086
				c-1.964-1.122-3.342-2.834-5.676-3.3c-4.327-0.863-7.837,2.737-7.483,6.952c0.086,1.017,0.294,2.045,0.616,3.013
				c0.427,1.286,0.693,1.046-0.351,1.875c-1.701,1.349-3.337,2.236-3.96,4.499c-1.389,5.039,2.786,7.123,6.634,8.575
				c1.08,0.408,0.987,0.021,1.349,1.433c0.252,0.987,0.575,1.957,0.993,2.886c0.803,1.786,1.852,3.335,3.71,4.124
				c1.548,0.657,3.37,0.731,4.95,0.136c0.836-0.315,1.487-0.772,2.107-1.401c0.62-0.63,1.389-2.548,2.068-2.927
				c0.743-0.415,4.336,1.139,5.803,1.035c2.153-0.152,4.055-1.046,5.369-2.764C690.338,1035.697,688.853,1031.315,685.525,1028.673z
				"/>
			<path fill="#B7A1D9" d="M623.497,945.869c-0.526-0.418-1.055-0.832-1.593-1.234c2.828-3.159,3.803-7.518,1.002-11.063
				c-2.385-3.018-6.779-3.836-10.193-2.24c-0.668,0.313-1.214,0.798-1.856,1.124c-1.309,0.665-0.258,0.59-1.442-0.086
				c-1.964-1.122-3.342-2.834-5.676-3.3c-4.327-0.863-7.837,2.737-7.483,6.952c0.086,1.017,0.294,2.045,0.616,3.013
				c0.427,1.286,0.694,1.046-0.351,1.875c-1.701,1.348-3.337,2.236-3.961,4.499c-1.389,5.04,2.786,7.123,6.634,8.575
				c1.08,0.408,0.987,0.021,1.349,1.433c0.253,0.987,0.575,1.957,0.993,2.887c0.803,1.786,1.851,3.335,3.71,4.124
				c1.548,0.657,3.37,0.731,4.95,0.136c0.836-0.315,1.487-0.772,2.107-1.401c0.62-0.63,1.389-2.548,2.068-2.927
				c0.743-0.415,4.336,1.139,5.803,1.035c2.153-0.152,4.055-1.046,5.369-2.764C628.31,952.893,626.825,948.512,623.497,945.869z"/>
			<path fill="#B7A1D9" d="M717.502,914.368c-0.526-0.418-1.055-0.832-1.593-1.234c2.828-3.16,3.803-7.518,1.002-11.063
				c-2.385-3.018-6.779-3.837-10.193-2.24c-0.668,0.313-1.214,0.798-1.856,1.124c-1.309,0.665-0.258,0.59-1.442-0.086
				c-1.964-1.122-3.342-2.834-5.676-3.3c-4.327-0.863-7.837,2.737-7.483,6.952c0.086,1.017,0.294,2.045,0.616,3.013
				c0.427,1.286,0.693,1.046-0.351,1.875c-1.701,1.349-3.336,2.235-3.96,4.499c-1.389,5.04,2.785,7.123,6.634,8.575
				c1.08,0.408,0.987,0.021,1.349,1.433c0.252,0.987,0.575,1.957,0.993,2.887c0.803,1.787,1.852,3.335,3.71,4.124
				c1.548,0.657,3.37,0.731,4.95,0.136c0.836-0.315,1.488-0.772,2.107-1.401c0.62-0.63,1.389-2.548,2.069-2.927
				c0.743-0.414,4.336,1.139,5.803,1.035c2.153-0.152,4.054-1.046,5.369-2.764C722.316,921.392,720.83,917.011,717.502,914.368z"/>
			<path fill="#B7A1D9" d="M772.377,856.327c-1.182-1.529-2.273-2.558-4.207-3.013c1.875-4.102,3.332-9.464-1.598-12.067
				c-1.956-1.032-4.504-0.821-6.321,0.393c-1.942,1.298-2.474,3.153-3.16,5.258c-2.125-2.276-4.737-3.577-7.814-2.282
				c-2.896,1.219-4.516,4.409-3.673,7.483c0.437,1.591,1.569,2.832,2.699,3.984c0.362,0.369,1.319,0.908,1.46,1.342
				c0.212,0.655-0.26,0.939-0.68,1.65c-1.59,2.694-2.666,6.329-0.713,9.12c1.767,2.524,5.277,3.59,8.076,2.119
				c1.343-0.706,2.406-1.81,3.022-3.2c0.495-1.117,0.665-2.392,1.959-2.426c1.451-0.038,3.148,0.988,4.63,1.147
				c1.507,0.161,3.142-0.179,4.39-1.052C773.135,862.9,774.042,859.2,772.377,856.327z"/>
			<path fill="#B7A1D9" d="M504.785,861.407c-2.328-3.595-7.794-3.038-10.102,0.182c-2.731-3.252-6.97-6.71-11.205-3.813
				c-1.858,1.271-2.945,3.386-2.796,5.652c0.175,2.653,1.881,3.914,3.635,5.618c-2.735,0.849-4.85,2.539-5.249,5.516
				c-0.331,2.472,0.785,5.076,3.028,6.32c1.362,0.756,2.944,0.997,4.466,0.722c1.356-0.245,2.744-1.295,4.063-1.418
				c0.938-0.087,0.259-0.301,0.989,0.344c0.469,0.415,0.786,1.14,1.197,1.637c0.944,1.142,2.108,2.28,3.435,2.967
				c5.968,3.088,11.748-4.475,7.773-9.616c-0.624-0.807-2.116-1.648-1.982-2.866c0.072-0.651,1.724-2.205,2.175-2.798
				C506.062,867.425,507.154,863.996,504.785,861.407z"/>
		</g>
		<g>
			<path fill="#48C1D9" d="M607.863,1008.596c-0.525,0.156-1.049,0.311-1.574,0.467c0.206-5.433-0.207-17.478-7.538-18.601
				c-7.251-1.111-9.706,9.635-10.267,14.781c-4.708-2.633-14.034-5.11-16.194,1.926c-1.828,5.956,6.127,10.106,5.97,14.066
				c-0.186,4.686-6.989,8.993-4.1,14.66c3.37,6.61,12.42,2.686,16.67-0.699c1.557,5.948,5.392,15.215,13.099,13.634
				c9.352-1.918,5.611-14.164,3.195-20.216c5.932-0.899,14.292-0.923,16.002-8.247
				C625.236,1011.32,615.332,1006.599,607.863,1008.596z"/>
			<path fill="#48C1D9" d="M537.409,994.457c-0.372-0.22-0.745-0.439-1.117-0.659c2.088-2.85,3.008-6.324,1.178-9.531
				c-2.893-5.07-7.151-3.061-11.533-2.911c-0.936,0.517-1.736,1.183-2.399,1.997c-1.288-1.035-2.69-1.887-4.207-2.557
				c-1.692-0.352-3.074-1.233-4.888-0.64c-7.717,2.524-1.625,7.675-2.934,11.756c-0.846,2.637-4.219,2.371-4.413,5.982
				c-0.25,4.667,2.964,4.585,5.586,6.908c0.888,0.786,2.367,0.61,3.168,1.304c2.561,2.217,1.682,5.839,5.954,6.913
				c6.021,1.513,4.895-3.919,8.418-5.318c1.155-0.459,3.431,1.487,4.969,0.91C542.463,1005.881,544.808,999.43,537.409,994.457z"/>
			<path fill="#48C1D9" d="M461.949,899.047c-0.372-0.22-0.745-0.439-1.117-0.659c2.089-2.849,3.008-6.324,1.178-9.531
				c-2.893-5.07-7.151-3.061-11.533-2.911c-0.936,0.517-1.736,1.183-2.399,1.997c-1.288-1.035-2.691-1.888-4.208-2.557
				c-1.692-0.352-3.074-1.233-4.888-0.639c-7.717,2.525-1.625,7.675-2.934,11.756c-0.846,2.637-4.219,2.371-4.412,5.982
				c-0.25,4.667,2.964,4.585,5.586,6.908c0.888,0.786,2.367,0.611,3.168,1.304c2.561,2.217,1.682,5.839,5.954,6.913
				c6.021,1.513,4.895-3.919,8.418-5.318c1.155-0.459,3.431,1.487,4.969,0.91C467.003,910.471,469.348,904.02,461.949,899.047z"/>
			<path fill="#48C1D9" d="M666.918,908.11c-1.151-1.491-4.26-2.098-4.981-3.445c-1.07-1.997,0.534-3.523,0.345-6.125
				c-0.523-7.211-10.66-9.564-12.404-1.58c-10.83-4.739-18.076,7.355-6.187,11.125c-2.721,2.61-3.973,6.782-0.937,9.844
				c4.362,4.398,6.689-0.016,10.445-1.404c3.172-1.172,3.635,1.103,7.821,0.959C665.664,917.324,669.72,912.939,666.918,908.11z"/>
		</g>
		<g>
			<path fill="#FFC65C" d="M489.925,952.001c3.629-5.998-1.351-10.247-6.747-11.454c-1.115-0.019-2.141,0.247-3.079,0.799
				c-1.153,0.885-2.208,0.535-3.163-1.048c-3.585-0.078-6.208-1.839-8.678,2.275c-2.733,4.552,0.637,1.919-0.41,5.994
				c-0.724,2.815-3.966,3.546-2.645,7.502c0.069,0.207,8.559,9.877,9.038,10.149c3.827,2.169,6.634-1.182,9.378-1.997
				c1.858-0.552,3.811,0.508,5.815-0.71C493.651,960.95,493.729,955.14,489.925,952.001z"/>
			<path fill="#FFC65C" d="M771.854,925.654c-1.434-5.631-7.316-7.751-12.545-6.712c-0.158-4.782-1.189-12.762-7.054-13.544
				c-5.719-0.763-8.333,5.904-9.172,10.386c-4.019-1.619-9.69-2.298-11.932,2.255c-2.814,5.716,3.462,7.097,4.018,11.353
				c0.446,3.411-4.948,7.012-3.444,11.512c2.039,6.103,9.162,4.98,13.471,2.232c1.742,5.07,6.029,11.692,12.422,9.049
				c6.206-2.566,4.529-10.292,2.836-15.226C766.539,936.034,773.943,933.861,771.854,925.654z"/>
			<path fill="#FFC65C" d="M469.328,851.02c3.18-4.412,6.24,0.568,10.855-3.613c5.12-4.637,1.218-10.169-3.446-12.9
				c3.41-4.651,2.621-11.27-3.473-13.178c-4.501-1.409-7.535,2.059-10.842,1.604c-4.153-0.572-6.007-4.573-10.26-0.363
				c-3.856,3.817,0.832,6.76-0.193,10.043c-1.318,4.221-6.714,3.879-3.412,9.601c1.899,3.291,5.649,2.792,7.739,4.601
				C459.418,849.519,463.851,860.275,469.328,851.02z"/>
			<path fill="#FFC65C" d="M646.844,980.348c-1.686-2.851-5.013-3.776-8.002-2.579c-1.832-11.642-16.026-11.003-12.703,1.078
				c-6.708-1.623-11.964,6.044-6.289,10.969c1.663,1.443,5.653,0.979,6.624,2.202c2.583,3.253-0.768,7.238,4.941,9.201
				c3.126,1.075,6.477-0.313,7.819-3.409c0.828-1.912-0.813-4.738,0.121-6.324C641.949,987.085,650.359,988.682,646.844,980.348z"/>
			<path fill="#FFC65C" d="M567.857,969.343c-1.687-2.852-5.013-3.775-8.002-2.579c-1.811-11.649-16.025-11.002-12.703,1.077
				c-6.708-1.622-11.964,6.044-6.289,10.969c1.663,1.443,5.653,0.978,6.625,2.202c2.583,3.253-0.768,7.238,4.941,9.201
				c3.126,1.075,6.477-0.313,7.819-3.409c0.828-1.912-0.813-4.738,0.121-6.323C562.962,976.081,571.373,977.677,567.857,969.343z"/>
			<path fill="#FFC65C" d="M567.044,1052.886c-0.731-1.248-1.727-2.118-2.988-2.609c7.239-9.378-3.036-19.215-9.443-8.544
				c-3.976-6.79-13.255-3.67-11.945,3.92c0.269,1.559,2.937,4,2.823,5.156c-0.075,0.766-2.276,2.01-2.553,2.853
				c-1.154,3.517-3.101,6.188,0.492,9.374c5.834,5.171,7.171-2.622,11.397-3.232c2.555-0.369,5.142,3.4,8.425,2.4
				C567.481,1060.916,568.609,1056.592,567.044,1052.886z"/>
			<path fill="#FFC65C" d="M607.284,893.144c-1.687-2.852-5.013-3.775-8.002-2.579c-1.811-11.649-16.025-11.002-12.703,1.077
				c-6.708-1.622-11.964,6.044-6.289,10.969c1.663,1.443,5.653,0.978,6.625,2.202c2.583,3.253-0.768,7.238,4.941,9.201
				c3.126,1.075,6.477-0.313,7.819-3.409c0.828-1.912-0.813-4.738,0.121-6.323C602.389,899.882,610.799,901.478,607.284,893.144z"/>
		</g>
	</g>
	<g>
		<path fill="#FF99C4" d="M919.779,186.856c-1.675-0.354-3.478-0.457-5.21-0.21c-0.722-0.06-1.44-0.078-2.134-0.006
			c-2.2,0.229-4.324,0.719-6.193,1.98c-0.853,0.576-1.755,1.244-2.424,2.052c-0.183,0.22-0.334,0.427-0.493,0.637
			c-0.607-1.777-1.388-3.495-2.419-5.114c-1.914-3.006-4.447-5.952-7.74-7.481c-3.824-1.776-8.131-2.427-12.007-0.364
			c-4.247,2.26-5.623,7.157-5.11,11.647c0.479,4.195,1.626,8.149,3.737,11.837c0.925,1.616,2.021,3.069,3.216,4.431
			c-3.043,0.569-5.919,1.925-8.139,4.136c-3.801,3.786-5.391,10.405-1.342,14.656c4.078,4.282,10.519,2.535,15.206,0.389
			c2.292-1.05,4.351-2.624,6.141-4.454c0.02,0.076,0.035,0.155,0.056,0.23c1.118,4.108,3.261,7.887,6.12,11.029
			c3.305,3.632,9.159,6.043,13.684,3.066c4.869-3.203,4.473-9.306,3.629-14.355c-0.499-2.985-1.55-5.872-3.004-8.554
			c2.066-0.228,3.966-0.778,5.836-1.793c2.106-1.143,3.71-2.795,5.1-4.707c1.469-2.02,2.107-4.462,2.336-6.91
			c0.225-2.408-0.424-5.231-1.816-7.229C925.129,189.355,922.71,187.476,919.779,186.856z"/>
		<path fill="#FF99C4" d="M809.538,110.777c1.788-0.766,3.495-1.717,5.074-2.974c3.669-2.921,6.071-7.398,6.006-12.141
			c-0.049-3.588-2.874-6.127-6.343-6.343c-5.652-0.352-11.766,1.291-16.367,4.632c-0.292,0.212-0.58,0.43-0.866,0.649
			c-0.234-0.513-0.492-1.019-0.799-1.509c-1.329-2.11-3.163-4-5.354-5.219c-4.629-2.576-10.533-2.53-15.076,0.233
			c-1.316,0.801-2.565,2.253-2.915,3.791c-0.358,1.571-0.346,3.527,0.639,4.888c2.105,2.909,4.51,5.316,7.557,7.255
			c0.396,0.252,0.817,0.474,1.231,0.705c-1.198,1.4-2.33,2.86-3.358,4.396c-1.52,2.271-3.008,4.773-3.158,7.566
			c-0.171,3.196,1.371,6.174,4.125,7.836c4.572,2.758,10.21,0.261,13.602-3.129c0.502-0.502,0.941-1.07,1.398-1.619
			c2.577,4.06,6.48,7.544,11.508,6.241c3.766-0.976,6.163-4.28,6.027-8.155C812.38,115.207,811.038,112.904,809.538,110.777z
			 M791.148,94.114c0.055,0.13,0.11,0.259,0.164,0.389c-0.058-0.142-0.121-0.277-0.183-0.413
			C791.135,94.098,791.141,94.106,791.148,94.114z M806.256,113.955c0.204,0.12,0.389,0.274,0.552,0.464
			C806.635,114.301,806.443,114.126,806.256,113.955z"/>
		<path fill="#FF99C4" d="M978.105,297.464c-0.119-0.366-0.272-0.703-0.437-1.03c-0.058-2.103-1.081-4.123-3.061-5.268
			c-3.32-1.921-6.84-2.926-10.62-3.366c-3.482-0.405-7.164-0.04-10.315,1.556c-2.228,1.129-3.89,3.125-4.709,5.46
			c-0.981,2.795-0.057,6.075,1.942,8.181c2.79,2.939,7.106,3.228,10.909,3.39c3.967,0.17,7.989-0.277,11.862-1.12
			C976.921,304.559,979.12,300.6,978.105,297.464z"/>
		<path fill="#FF99C4" d="M832.118,163.731c-3.322-1.971-7.612-1.557-10.826,0.41c-4.489,2.748-7.421,7.776-8.98,12.682
			c-1.627,5.12-1.642,10.955,0.018,16.066c1.023,3.151,4.44,5.518,7.803,4.43c0.457-0.148,0.89-0.358,1.306-0.599
			c5.111-1.011,9.279-4.378,11.859-9.01c1.273-2.285,2.185-4.786,3.02-7.259c1.044-3.091,1.648-6.25,0.984-9.498
			C836.694,167.979,834.715,165.272,832.118,163.731z"/>
		<path fill="#FF99C4" d="M740.819,111.207c-1.749-0.968-3.505-1.384-5.489-1.502c-0.942-0.056-1.905,0.124-2.828,0.269
			c-0.499,0.079-0.964,0.208-1.433,0.397c-1.04,0.42-2.069,0.82-2.992,1.458c-0.906,0.626-1.796,1.311-2.6,2.068
			c-0.956,0.901-1.782,1.927-2.599,2.952c-0.619,0.575-1.056,1.255-1.312,2.041c-0.397,0.756-0.579,1.57-0.546,2.444
			c0,1.267,0.476,2.712,1.277,3.792c0.109,0.757,0.337,1.494,0.758,2.148c0.868,1.346,2.176,2.564,3.791,2.915
			c1.767,0.384,3.552,0.704,5.356,0.852c0.645,0.053,1.295,0.064,1.94,0.004c1.117-0.103,2.293-0.212,3.371-0.561
			c3.727-1.21,7.232-4.261,8.081-8.237c0.541-2.531,0.257-4.934-0.946-7.228C743.842,113.48,742.331,112.044,740.819,111.207z"/>
	</g>
	<g>
		<path fill="#C6C9A9" d="M969.141,256.368c-4.036-4.325-9.608-6.815-15.321-8.034c-5.424-1.157-11.464-2.011-17.027-1.703
			c-7.241,0.4-13.016,3.552-16.515,10.04c-1.879,3.485-3.274,7.623-1.883,11.551c1.337,3.776,4.325,6.643,8.225,7.669
			c3.205,0.844,7.036-1.064,7.803-4.43c0.695-3.053-0.75-6.298-3.652-7.507c0.545-1.362,1.558-2.883,2.477-3.682
			c0.1-0.033,0.452-0.238,0.662-0.356c0.024-0.013,0.027-0.017,0.047-0.029c0.025-0.007,0.031-0.007,0.061-0.017
			c0.475-0.146,0.959-0.256,1.434-0.395c0.121-0.036,0.201-0.061,0.269-0.083c0.032,0,0.073,0,0.148-0.007
			c1.97-0.177,3.948-0.1,5.917,0.055c1.741,0.137,3.48,0.317,5.214,0.529c0.232,0.032,0.616,0.084,0.722,0.101
			c0.508,0.079,1.015,0.164,1.52,0.258c0.904,0.168,1.803,0.36,2.695,0.585c0.977,0.247,1.943,0.531,2.891,0.869
			c0.137,0.049,0.705,0.286,0.797,0.315c0.229,0.109,0.461,0.214,0.686,0.33c0.827,0.426,1.625,0.916,2.382,1.458
			c0.063,0.054,0.135,0.117,0.211,0.189c0.437,0.414,0.857,0.824,1.268,1.264c2.27,2.432,6.708,2.465,8.971,0
			C971.532,262.734,971.562,258.961,969.141,256.368z M930.25,263.941c0.023,0.083,0.059,0.202,0.104,0.339
			c-0.03-0.058-0.068-0.172-0.107-0.341C930.248,263.94,930.249,263.94,930.25,263.941z"/>
		<path fill="#C6C9A9" d="M933.235,312.085c-3.177-4.224-7.907-5.844-12.88-3.745c-6.932,2.925-10,11.189-11.498,17.981
			c-1.978,8.969-2.035,18.032-0.465,27.06c0.55,3.158,4.452,5.228,7.457,4.496c1.478,0.299,3.032,0.118,4.461-0.622
			c12.965-6.715,19.532-21.37,16.794-35.548C936.466,318.4,935.272,314.794,933.235,312.085z"/>
		<path fill="#C6C9A9" d="M911.428,181.275c0.255-0.634,0.516-1.266,0.776-1.898c1.029-2.367,2.196-4.667,3.692-6.771
			c0.602-0.711,1.251-1.376,1.952-1.989c0.632-0.433,1.292-0.819,1.98-1.158c0.547-0.187,1.103-0.34,1.668-0.458
			c0.268-0.013,0.537-0.019,0.805-0.013c0.554,0.116,1.11,0.22,1.646,0.427c-0.309-0.13-0.618-0.261-0.927-0.391
			c0.01,0.001,0.019,0.001,0.029,0.002c1.5,0.612,2.883,0.969,4.551,0.509c1.471-0.405,3.066-1.543,3.791-2.915
			c0.778-1.472,1.168-3.255,0.639-4.888c-0.471-1.457-1.438-3.161-2.915-3.791c-2.173-0.927-3.869-1.443-6.251-1.633
			c-0.079-0.006-0.16,0.01-0.239,0.005c-0.083-0.861-0.348-1.702-0.853-2.451c-4.622-6.861-10.123-13.971-18.81-15.46
			c-4.547-0.78-8.957-0.306-13.502,0.174c-4.646,0.49-9.293,0.981-13.94,1.471c-2.292,0.242-4.257,1.056-5.477,3.142
			c-1.04,1.777-1.327,4.658,0,6.403c4.386,5.768,10.548,9.174,17.7,10.283c7.611,1.18,15.194,0.039,22.83,0.402
			c-0.559,0.409-1.114,0.826-1.639,1.274c-4.925,4.195-7.4,10.521-9.74,16.353c-0.572,1.428-0.103,3.619,0.64,4.888
			c0.77,1.316,2.279,2.57,3.791,2.915c1.624,0.37,3.446,0.29,4.888-0.639C909.987,184.115,910.778,182.894,911.428,181.275z
			 M922.961,168.992c-0.009-0.001-0.018-0.002-0.027-0.004c-0.062-0.026-0.124-0.052-0.185-0.078
			C922.821,168.94,922.89,168.962,922.961,168.992z"/>
		<path fill="#C6C9A9" d="M776.003,141.233c-6.627,2.979-10.955,10.76-10.036,17.966c0.418,3.279,2.617,6.51,6.343,6.343
			c3.076-0.138,6.792-2.817,6.343-6.343c-0.091-0.714-0.101-1.405-0.118-2.122c-0.003-0.111-0.009-0.161-0.015-0.232
			c0.02-0.062,0.035-0.098,0.06-0.191c0.062-0.227,0.5-1.41,0.458-1.449c0.175-0.317,0.352-0.633,0.523-0.953
			c0.058-0.108,0.086-0.171,0.114-0.235c0.052-0.039,0.106-0.08,0.195-0.161c0.223-0.238,0.458-0.463,0.701-0.68
			c0.042-0.029,0.063-0.043,0.113-0.077c0.354-0.208,0.71-0.399,1.071-0.587c0.053,0.029,0.798-0.213,1.237-0.351
			c0.208-0.038,0.562-0.098,0.818-0.102c0.292-0.005,0.583,0.01,0.875,0.027c0.291,0.094,1.203,0.392,1.227,0.343
			c0.21,0.119,0.414,0.236,0.486,0.259c0.099,0.092,0.196,0.185,0.289,0.282c0.041,0.066,0.077,0.126,0.142,0.226
			c0.001,0.003,0.003,0.006,0.004,0.009c0.023,0.082,0.063,0.205,0.126,0.392c0.059,0.218,0.1,0.44,0.145,0.661
			c-0.038,0.622,0.037,1.259,0.003,1.886c-0.015,0.267-0.062,0.646-0.085,0.84c-0.113,0.634-0.23,1.268-0.378,1.895
			c-0.296,1.256-0.659,2.495-1.089,3.712c-0.059,0.166-0.46,1.174-0.5,1.309c-0.194,0.432-0.391,0.863-0.603,1.286
			c-0.621,1.243-1.314,2.45-2.074,3.613c-0.379,0.581-0.782,1.15-1.199,1.706c-0.146,0.168-0.58,0.7-0.676,0.811
			c-0.785,0.901-1.634,1.706-2.515,2.502c0.156-0.164-0.702,0.538-0.826,0.618c-0.17,0.11-1.319,0.702-1.376,0.783
			c-0.372,0.12-0.748,0.223-1.119,0.348c-0.075,0.015-0.108,0.022-0.167,0.034c-0.287,0.015-0.574,0.027-0.862,0.017
			c-3.319-0.031-6.495,2.939-6.343,6.343c0.155,3.463,2.787,6.31,6.343,6.343c13.096,0.121,22.251-14.168,25.097-25.473
			c1.59-6.316,1.805-13.469-2.843-18.599C790.884,138.702,782.428,138.345,776.003,141.233z"/>
		<path fill="#C6C9A9" d="M751.994,60.951c-0.78-0.638-1.61-1.134-2.479-1.447c-0.496-0.667-1.11-1.224-1.815-1.597
			c-3.271-1.728-6.615-0.616-8.678,2.275c-6.423,9-9.468,20.688-8.168,31.675c0.402,3.405,2.58,6.347,6.343,6.343
			c9.192-0.01,17.444-5.745,20.765-14.264C760.972,76.211,758.425,66.209,751.994,60.951z"/>
		<path fill="#C6C9A9" d="M848.896,134.611c0.015-0.059,0.029-0.118,0.044-0.176c-0.086,0.095-0.146,0.321-0.166,0.451
			c0.03-0.062,0.067-0.135,0.103-0.21C848.884,134.65,848.888,134.64,848.896,134.611z"/>
		<path fill="#C6C9A9" d="M874.243,110.668c-0.159-3.558-2.787-6.191-6.343-6.343c-12.258-0.524-25.015,4.996-32.838,14.5
			c-4.524,5.497-8.863,12.987-6.288,20.328c2.336,6.663,8.885,11.831,16.145,11.505c7.847-0.353,14.96-6.276,16.55-14.028
			c0.665-3.241-0.938-7.007-4.43-7.803c-3.167-0.721-7.089,0.954-7.803,4.43c-0.082,0.399-0.191,0.785-0.295,1.177
			c0.027-0.03,0.056-0.047,0.086-0.042c-0.007-0.001-0.077,0.137-0.149,0.282c-0.097,0.355-0.123,0.343-0.103,0.21
			c-0.033,0.067-0.058,0.118-0.064,0.13c-0.193,0.357-0.421,0.686-0.637,1.027c-0.176,0.19-0.421,0.446-0.454,0.479
			c-0.025,0.025-0.196,0.212-0.365,0.378c-0.38,0.232-0.74,0.487-1.135,0.698c-0.027,0.014-0.17,0.077-0.312,0.143
			c-0.032,0.008-0.045,0.012-0.081,0.021c-0.224,0.055-0.442,0.126-0.667,0.18c-0.16,0.038-0.452,0.042-0.577,0.046
			c-0.105-0.007-0.205-0.013-0.293-0.017c-0.225-0.048-0.491-0.097-0.566-0.119c-0.139-0.039-0.276-0.087-0.414-0.134
			c-0.299-0.174-0.82-0.485-1.06-0.627c-0.143-0.152-0.314-0.288-0.46-0.437c-0.114-0.117-0.222-0.241-0.331-0.363
			c-0.097-0.168-0.215-0.384-0.324-0.583c0.055,0.236,0.039,0.401-0.103-0.142c-0.003-0.01-0.012-0.051-0.017-0.075
			c-0.053-0.094-0.097-0.169-0.104-0.168c0.026-0.003,0.051,0.014,0.074,0.037c-0.038-0.174-0.091-0.407-0.135-0.552
			c-0.006-0.126-0.007-0.252-0.012-0.374c-0.001-0.021,0.001-0.084,0.003-0.157c0.034-0.208,0.081-0.525,0.105-0.624
			c0.123-0.5,0.296-0.977,0.461-1.462c0.162-0.303,0.305-0.616,0.469-0.918c0.551-1.018,1.182-1.996,1.854-2.939
			c0.089-0.125,0.18-0.248,0.271-0.372c0.439-0.501,0.855-1.021,1.306-1.513c0.748-0.814,1.535-1.592,2.357-2.329
			c0.38-0.341,0.772-0.667,1.163-0.996c0.014-0.012,0.057-0.046,0.093-0.075c0.159-0.117,0.393-0.291,0.447-0.33
			c1.878-1.345,3.875-2.462,5.96-3.452c0.014-0.007,0.059-0.027,0.091-0.041c0.183-0.073,0.45-0.182,0.514-0.206
			c0.636-0.243,1.279-0.467,1.929-0.673c1.135-0.36,2.288-0.662,3.455-0.903c0.333-0.069,0.667-0.133,1.002-0.192
			c0.068-0.012,0.317-0.054,0.507-0.086c0.034-0.004,0.062-0.008,0.079-0.009c0.339-0.031,0.676-0.067,1.016-0.093
			c1.36-0.103,2.72-0.111,4.082-0.052C871.219,117.153,874.392,113.992,874.243,110.668z M848.253,135.838
			c0.004,0.003-0.043,0.057-0.109,0.129C848.2,135.887,848.244,135.83,848.253,135.838z M847.121,137.025
			c-0.078,0.069-0.147,0.122-0.185,0.128C846.932,137.153,847.017,137.096,847.121,137.025z M845.838,137.732
			C846.154,137.63,846.465,137.575,845.838,137.732L845.838,137.732z M845.787,137.75c-0.146,0.068-0.284,0.137-0.286,0.157
			C845.504,137.859,845.637,137.801,845.787,137.75z M844.525,138.06c-0.004-0.007-0.051-0.02-0.091-0.031
			C844.481,138.037,844.517,138.047,844.525,138.06z M843.407,137.828c0,0.002-0.069-0.038-0.108-0.061
			C843.362,137.793,843.41,137.816,843.407,137.828z M841.507,136.51c-0.01,0.009-0.057-0.062-0.122-0.172
			C841.461,136.426,841.519,136.5,841.507,136.51z M841.393,131.922C841.442,131.775,841.435,131.797,841.393,131.922
			L841.393,131.922z"/>
		<path fill="#C6C9A9" d="M841.034,135.707c-0.031-0.133-0.082-0.282-0.15-0.348c0.013,0.061,0.021,0.093,0.029,0.131
			C840.948,135.55,840.989,135.625,841.034,135.707z"/>
		<path fill="#C6C9A9" d="M898.628,242.734c-1.792-0.756-3.951-0.766-5.645,0.32c-3.227,2.069-5.989,4.992-7.569,8.513
			c-0.788,1.755-1.434,3.465-1.721,5.364c-0.392,2.594-0.353,4.76,0.059,7.363c0.099,0.624,0.444,1.262,0.873,1.857
			c-1.04,2.734,0.163,6.319,2.761,7.691c3.169,1.674,6.734,0.693,8.678-2.276c4.685-7.155,9.221-15.999,6.235-24.721
			C901.645,244.928,900.508,243.527,898.628,242.734z"/>
	</g>
	<g>
		<g>
			<path fill="#BE2C2C" d="M670.169,1078.753c-17.294-5.865-37.043-1.133-50.103,11.545c-2.025-5.875-5.466-10.99-10.149-15.084
				c-3.533-3.089-9.674-7.498-13.477-2.042c-1.375,1.973-1.502,4.727-0.345,6.825c1.347,2.442,4.383,3.642,6.364,5.571
				c3.654,3.559,6.108,8.259,6.856,13.38c0.302,2.066,0.314,4.272,0.057,6.345c-0.296,2.376-0.662,4.524,0.731,6.663
				c3.099,4.759,9.511,2.506,11.269-1.973c4.187-10.669,15.689-18.862,26.758-20.673c3.678-0.602,7.446-0.611,11.135-0.105
				c1.707,0.234,3.399,0.581,5.063,1.03c1.693,0.456,3.306,1.244,5.098,0.944C676.148,1090.05,676.406,1080.868,670.169,1078.753z
				 M604.647,1087.828c-0.019-0.024-0.042-0.059-0.057-0.073C604.609,1087.78,604.629,1087.804,604.647,1087.828z"/>
			<path fill="#A1201D" d="M542.056,1074.141c-4.194,1.414-6.154,6.571-3.197,10.114c3.519,4.216,8.458,1.292,12.845,0.567
				c8.644-1.428,18.344-0.251,25.846,4.472c3.32,2.091,5.506,6.279,9.956,5.57c4.457-0.71,6.655-5.71,4.372-9.553
				c-2.036-3.427-6.302-6.14-9.699-8.038c-3.633-2.029-7.575-3.475-11.624-4.419
				C561.229,1070.682,551.139,1071.079,542.056,1074.141z M573.424,1087.08C573.036,1086.927,573.118,1086.945,573.424,1087.08
				L573.424,1087.08z"/>
		</g>
		<g>
			<path fill="#1A122E" d="M766.448,483.806c-3.347-2.542-8.119-1.892-10.667,1.454c-21.053,27.701-51.596,17.54-52.951,17.07
				c-3.949-1.39-8.29,0.665-9.703,4.618c-1.415,3.958,0.649,8.314,4.609,9.727c4.794,1.712,11.643,3.079,19.477,3.079
				c15.855,0,35.731-5.602,50.689-25.282C770.445,491.125,769.795,486.35,766.448,483.806z"/>
			<path fill="#DD4B5C" d="M642.043,576.568c-4.182-0.358-7.884,2.717-8.258,6.905c-0.766,8.59-3.682,14.889-8.664,18.721
				c-4.206,3.233-9.357,4.412-13.591,4.771c-5.019,0.06-13.762-0.668-19.756-5.759c-4.45-3.776-6.712-9.42-6.918-17.256
				c-0.111-4.203-3.679-7.491-7.81-7.41c-4.202,0.11-7.517,3.606-7.408,7.81c0.322,12.289,4.487,21.893,12.376,28.541
				c4.889,4.12,10.564,6.458,15.931,7.764c0.82,0.532,1.756,0.916,2.778,1.102c0.3,0.057,3.221,0.565,7.505,0.565
				c1.131,0,2.384-0.056,3.682-0.145c3.271-0.042,5.447-0.336,5.716-0.376c0.94-0.136,1.802-0.458,2.586-0.893
				c4.666-1.146,9.586-3.139,14.062-6.547c8.57-6.529,13.508-16.467,14.675-29.534C649.322,580.641,646.23,576.943,642.043,576.568z
				"/>
			<path fill="#1A122E" d="M926.158,144.544C843.485,44.536,717.023,49.85,711.688,50.128c-4.165,0.214-7.381,3.74-7.215,7.906
				l2.123,53.09c-45.693-25.187-94.914-25.65-98.132-25.65c-0.146,0-0.283,0.035-0.427,0.043c-0.144-0.008-0.281-0.043-0.427-0.043
				c-1.244,0-30.882,0.139-65.639,12.206c-44.631,15.496-77.001,43.767-94.031,81.894c-8.994,0.025-27.509,1.635-48.801,12.469
				c-21.024,10.699-48.1,32.464-69.269,76.584c-6.663-3.396-35.893-18.152-56.321-26.145c-16.509-6.459-27.678-1.078-31.422,7.123
				c-3.632,7.97-0.617,19.512,14.316,27.334c17.198,9.008,48.461,22.416,59.499,27.093c-0.45,1.41-0.904,2.81-1.343,4.253
				c-3.782,12.668-6.244,25.24-7.743,37.517c-6.209,0.078-45.102,0.655-67.82,3.254c-17.621,2.014-24.973,11.997-24.44,20.996
				c0.515,8.707,8.516,17.459,25.23,17.459c0.069,0,0.139,0,0.208,0c19.317-0.083,52.974-2.831,65.078-3.873
				c0.563,20.897,3.467,39.963,6.992,55.862c-0.463,0.1-0.924,0.234-1.376,0.425c-1.467,0.621-36.202,15.347-57.559,27.076
				c-15.545,8.538-18.568,20.561-14.668,28.689c2.587,5.385,8.429,9.461,16.826,9.461c3.912,0,8.382-0.887,13.333-2.937
				c17.502-7.249,43.812-20.869,53.962-26.201c1.005,2.769,1.872,5.002,2.559,6.71c-7.764,6.157-11.553,17.979-11.553,35.949
				c0,17.832,5.282,30.534,15.699,37.753c6.848,4.746,14.765,6.186,21.856,6.186c6.141,0,11.646-1.08,15.306-2.028
				c25.444,61.085,71.98,95.243,119.883,114.129c-9.411,8.674-24.499,24.521-37.503,47.06
				c-21.824,37.828-39.417,60.681-60.535,78.625c-3.665,1.923-15.308,8.882-19.898,21.843c-3.288,9.291-2.292,19.329,2.958,29.832
				c5.015,10.03,12.143,16.162,21.184,18.228c2.267,0.518,4.514,0.741,6.712,0.741c7.305,0,14.027-2.486,18.938-4.969
				c1.776,6.511,3.426,13.766,4.86,21.894c12.432,70.46,51.776,124.828,82.538,140.299c5.264,13.379,9.116,22.546,9.603,23.698
				c0.001,0.002,0.001,0.005,0.002,0.007c0.51,1.214,6.718,15.669,18.051,29.594c0,0.001-0.001,0.002-0.001,0.002
				c-0.216,2.401-1.99,23.808,2.391,35.86c4.029,11.073,20.069,13.345,32.555,13.345c4.133,0,7.879-0.25,10.667-0.51
				c0.342-0.032,0.662-0.12,0.988-0.195c0.766,1.455,1.614,2.896,2.657,4.29c7.768,10.389,21.293,15.644,40.238,15.642
				c1.241,0,2.51-0.022,3.798-0.067c27.024-0.949,39.923-4.343,47.592-12.53c8.082-8.627,7.978-20.357,7.832-36.591
				c-0.04-4.549-0.087-9.703,0.042-15.273c0.048-2.026-0.714-3.874-1.973-5.268c3.46-5.494,6.858-11.721,10.12-18.821
				c0.084-0.181,0.122-0.37,0.19-0.554c6.803-3.009,10.173-5.492,10.61-5.826c1.053-0.805,1.878-1.868,2.391-3.09
				c0.468-1.109,4.33-10.297,9.61-23.715c30.763-15.471,70.104-69.841,82.538-140.299c1.433-8.122,3.088-15.374,4.872-21.887
				c4.909,2.482,11.626,4.963,18.926,4.962c2.195,0,4.445-0.223,6.712-0.741c9.041-2.066,16.169-8.199,21.184-18.228
				c5.25-10.505,6.246-20.54,2.956-29.832c-4.587-12.961-16.23-19.921-19.896-21.843c-21.117-17.94-38.709-40.792-60.538-78.625
				c-13.002-22.539-28.09-38.386-37.501-47.06c47.903-18.887,94.438-53.044,119.882-114.13c3.66,0.948,9.164,2.029,15.307,2.029
				c7.089,0,15.01-1.441,21.856-6.186c10.416-7.219,15.699-19.921,15.699-37.753c0-17.97-3.789-29.794-11.555-35.95
				c5.158-12.812,21.053-56.886,20.128-110.854l58.957,1.203c0.052,0.001,0.107,0.001,0.159,0.001c3.498,0,6.556-2.391,7.391-5.804
				C981.28,362.307,1008.832,244.553,926.158,144.544z M607.618,100.698c0.144,0,0.279-0.035,0.422-0.043
				c0.144,0.008,0.28,0.043,0.426,0.043c1.137,0,113.702,1.016,149.817,88.468c0.522,7.509,2.356,56.794-35.123,89.044
				c-43.806-17.186-87.687-24.462-116.165-24.462c-0.076,0-0.147,0.02-0.223,0.022c-0.076-0.002-0.147-0.022-0.223-0.022
				c-27.471,0-69.727,7.006-112.104,23.559c-36.432-32.275-34.627-80.746-34.113-88.139
				C496.347,101.909,606.505,100.7,607.618,100.698z M444.875,194.8c-0.159,17.208,3.158,57.66,34.221,88.937
				c-31.951,14.312-62.958,34.269-86.647,60.995c-33.152,37.399-48.085,82.762-44.55,134.965c-2.476-0.811-5.241-1.398-8.126-1.528
				c-5.34-13.171-33.506-88.756-10.597-165.492C361.194,207.33,423.681,195.631,444.875,194.8z M263.507,263.455
				c-6.497-3.403-7.77-6.899-7.53-7.533c0.325-0.683,4.311-2.279,12.027,0.738c20.421,7.99,51.199,23.615,55.689,25.908
				c-0.937,2.297-1.859,4.641-2.762,7.044C309.306,284.67,279.531,271.849,263.507,263.455z M239.972,372.29
				c-7.205,0.006-10.094-2.463-10.178-3.134c-0.035-0.753,2.738-4.032,10.974-4.974c20.3-2.322,55.407-2.992,64.708-3.133
				c-0.146,2.453-0.258,4.889-0.332,7.307C294.598,369.268,259.225,372.207,239.972,372.29z M262.833,488.153
				c-6.779,2.808-10.273,1.544-10.607,0.951c-0.317-0.683,1.003-4.766,8.273-8.759c18.841-10.349,49.696-23.637,55.274-26.021
				c0.673,2.454,1.345,4.823,2.009,7.033C310.242,465.336,281.031,480.614,262.833,488.153z M337.957,543.888
				c-6.041-4.215-9.106-12.697-9.106-25.213c0-19.086,4.752-23.611,6.794-24.67c3.997-2.08,11.152,1.37,13.992,3.368
				c0.04,0.028,0.084,0.043,0.124,0.071c2.468,17.782,6.311,34.016,11.332,48.804C354.652,547.691,344.641,548.546,337.957,543.888z
				 M395.97,855.461c-4.452-1.018-8.038-4.353-10.959-10.196c-3.313-6.623-4.073-12.629-2.257-17.847
				c1.908-5.493,6.293-9.369,9.453-11.575c4.542,3.983,13.461,13.962,21.341,35.454C409.187,853.813,402.035,856.848,395.97,855.461
				z M438.079,885.322c-8.375-47.455-23.853-69.385-33.595-78.892c24.569-22.755,42.178-50.367,57.572-77.049
				c15.683-27.184,34.999-44.092,40.738-48.777c8.333,2.702,16.635,4.982,24.811,6.903c0.372,1.471,1.173,2.847,2.412,3.909
				l49.075,42.065l-7.039,6.461c-2.644,2.428-3.231,6.373-1.412,9.467l4.393,7.467c-25.728-3.835-47.143-11.849-55.845-15.437
				l-1.119-27.952c-0.171-4.2-3.65-7.401-7.911-7.302c-4.2,0.168-7.468,3.712-7.302,7.911l1.236,30.877l-7.375,15.668
				c-2.024-0.971-4.371-1.026-6.419-0.093c-2.138,0.966-3.709,2.867-4.259,5.146l-9.165,37.976c-0.808,3.34,0.726,6.806,3.736,8.459
				c0.296,0.162,1.356,0.737,3.035,1.6l-2.831,17.231c-2.388,6.369-16.921,47.732-9.276,91.058
				c3.946,22.367,14.46,53.885,24.191,80.295C472.063,979.781,446.931,935.497,438.079,885.322z M722.323,830.669
				c-31.101,33.875-102.665,34.231-115.391,34.017c-0.184-0.013-0.36-0.055-0.548-0.055c-0.823,0-80.783-0.394-110.116-33.835
				l1.687-10.268c21.89,9.697,61.43,24.279,101.296,24.277c2.958,0,5.922-0.096,8.878-0.266c1.181,0.014,2.376,0.043,3.545,0.043
				c51.18-0.002,88.651-13.318,109.156-23.011L722.323,830.669z M584.747,1092.542c-0.212,0.009-0.42-0.028-0.633,0
				c-19.094,2.375-34.35-13.336-43.881-27.127c6.512,1.942,14.075,3.396,22.253,3.396c2.159,0,4.366-0.124,6.599-0.342
				c7.301,1.147,14.267,2.052,20.883,2.725C587.473,1076.906,584.851,1084.738,584.747,1092.542z M560.74,1053.537
				c-15.103-0.494-27.853-7.048-32.409-9.702c-5.61-13.536-34.886-85.275-41.801-124.465c-5.013-28.411,0.764-56.653,5.027-71.955
				c18.23,15.709,45.365,23.823,68.714,27.997C551.439,959.181,557.97,1029.939,560.74,1053.537z M609.938,829.345
				c-0.518-0.071-1.05-0.094-1.594-0.054c-0.174,0.011-0.349,0.014-0.522,0.025c-0.979-0.013-1.947-0.016-2.937-0.04
				c-0.708-0.029-1.386,0.079-2.045,0.244c-46.034,1.093-94.218-20.468-109.762-28.111l5.533-22.921
				c39.762,18.168,84.794,21.818,104.884,22.501c0.344,0.055,0.685,0.12,1.043,0.128c0.404,0.012,2.124,0.042,4.888,0.01
				c2.622,0.028,4.263,0,4.652-0.01c0.346-0.007,0.675-0.071,1.008-0.123c20.072-0.679,65.128-4.326,104.916-22.506l5.642,23.372
				C712.666,809.3,671.444,829.714,609.938,829.345z M703.158,756.578l4.933,10.483c-39.767,16.49-84.72,18.581-98.77,18.816
				c-14.029-0.236-59.014-2.33-98.795-18.823l5.009-10.64c14.789,5.954,50.996,18.595,90.3,17.775
				c0.847-0.016,1.679-0.176,2.463-0.463c0.453,0.084,0.917,0.139,1.394,0.139c0.052,0,0.107,0,0.161-0.003
				C657.885,772.862,689.684,762.171,703.158,756.578z M602.955,759.002c-0.198,0-0.396,0-0.595,0c-2.884,0-5.751-0.079-8.594-0.223
				c-0.067-0.131-0.107-0.268-0.182-0.396l-6.702-11.39l55.379-50.837c0.277-0.254,0.503-0.54,0.733-0.823
				c10.7-1.031,22.154-2.582,34.032-4.849C650.195,720.118,612.082,751.584,602.955,759.002z M613.913,697.178
				c0.488,0,0.963-0.056,1.426-0.144c1.173-0.031,2.367-0.07,3.575-0.113l-7.336,6.734l-7.158-6.506
				c0.095,0.004,0.185,0.028,0.281,0.028c1.489,0,3.035-0.012,4.606-0.031C610.878,697.166,612.424,697.178,613.913,697.178z
				 M581.164,695.827c0.412,0.85,0.979,1.643,1.721,2.317l17.435,15.847l-9.936,9.121l-35.381-30.327
				C564.128,694.171,572.898,695.148,581.164,695.827z M549.979,1112.225c-1.425-3.921-1.914-10.186-1.987-16.083
				c7.959,6.145,17.287,10.721,27.912,11.688c-0.195,2.244-0.233,4.762-0.057,7.403
				C564.409,1116.059,551.861,1114.562,549.979,1112.225z M666.775,1100.949c0.119,13.169,0.196,21.868-3.719,26.048
				c-4.304,4.594-15.719,6.975-37.017,7.723c-10.726,0.352-24.871-0.949-31.264-9.415c-3.474-4.601-4.063-10.388-3.805-14.985
				c2.05,2.222,4.557,4.081,7.511,5.488c6.7,3.189,13.979,4.792,21.415,4.792c6.197,0,12.503-1.115,18.667-3.35
				c7.997-2.899,17.977-8.551,28.185-19.478C666.757,1098.856,666.766,1099.923,666.775,1100.949z M633.376,1102.939
				c-13.097,4.75-23.38,1.492-28.347-0.877c-2.458-1.169-3.868-2.733-4.571-5.069c-2.178-7.239,2.864-19.011,5.816-24.548
				c5.337,0.279,10.448,0.426,15.284,0.425c20.308-0.001,36.233-2.279,48.336-5.204
				C659.414,1085.917,646.947,1098.018,633.376,1102.939z M690.251,1043.912c-7.327,4.296-41.179,20.795-114.11,10.233
				c-2.449-19.904-9.72-91.216-0.807-176.469c13.568,1.675,24.305,2.065,28.819,2.151c0.047,0.003,0.089,0.018,0.137,0.02
				c0.56,0.025,2.966,0.116,6.784,0.116c20.419,0,81.194-2.675,115.937-32.71c4.267,15.265,10.104,43.608,5.073,72.118
				C725.157,958.62,695.782,1030.567,690.251,1043.912z M833.604,845.265c-2.911,5.825-6.482,9.158-10.914,10.186
				c-6.038,1.406-13.167-1.593-17.591-4.143c7.878-21.383,16.809-31.422,21.338-35.443c3.158,2.209,7.52,6.076,9.424,11.553
				C837.675,832.636,836.916,838.642,833.604,845.265z M756.557,729.381c15.396,26.687,33.008,54.299,57.574,77.049
				c-9.742,9.507-25.221,31.437-33.595,78.892c-8.855,50.174-33.985,94.457-57.652,116.988c9.731-26.41,20.244-57.927,24.191-80.293
				c7.645-43.325-6.89-84.687-9.278-91.057l-2.778-16.919c2.121-1.281,3.372-2.131,3.661-2.331c2.582-1.791,3.798-4.985,3.06-8.04
				l-9.167-37.976c-0.55-2.279-2.121-4.18-4.259-5.146c-2.048-0.93-4.394-0.875-6.418,0.093l-7.373-15.667l1.236-30.878
				c0.166-4.2-3.102-7.743-7.302-7.911c-4.269-0.094-7.74,3.102-7.911,7.302l-1.125,28.111
				c-8.948,3.886-33.388,13.013-71.081,16.083c19.215-16.378,49.606-43.622,69.667-68.213c0.998-1.223,1.552-2.662,1.684-4.123
				c5.349-1.414,10.736-2.992,16.137-4.743C721.551,685.257,740.797,702.062,756.557,729.381z M609.307,681.928
				c-85.172-0.912-225.356-27.862-245.156-191.665c-6.4-52.937,6.955-98.502,39.69-135.432
				c55.444-62.551,153.759-85.861,202.706-85.861c0.076,0,0.147-0.02,0.223-0.022c0.076,0.002,0.147,0.022,0.223,0.022
				c50.387,0,151.415,23.792,208.005,87.635c32.478,36.641,45.756,81.609,39.462,133.658
				C834.663,654.066,694.48,681.016,609.307,681.928z M880.658,543.888c-6.689,4.66-16.709,3.801-23.137,2.361
				c5.02-14.789,8.863-31.023,11.331-48.806c0.037-0.026,0.079-0.039,0.116-0.066c2.837-1.998,9.978-5.456,14.001-3.373
				c2.042,1.059,6.794,5.585,6.794,24.67C889.763,531.191,886.698,539.673,880.658,543.888z M878.836,478.169
				c-2.887,0.131-5.655,0.719-8.133,1.531c3.411-51.341-11.441-96.107-44.314-133.193c-23.957-27.028-55.367-47.258-87.824-61.824
				c31.947-31.401,35.333-72.498,35.172-89.881c21.193,0.831,83.682,12.524,115.689,117.839
				C912.293,389.246,884.164,464.981,878.836,478.169z M966.438,357.723l-53.59-1.094c-1.207-15.664-3.941-31.946-8.846-48.38
				c-21.749-71.56-57.971-102.691-84.529-116.205c-21.251-10.814-39.737-12.439-48.749-12.47
				c-11.653-26.163-29.192-45.051-48.499-58.688l-2.224-55.58c28.015,0.56,127.859,8.418,194.423,88.938
				C981.963,235.945,970.71,333.022,966.438,357.723z"/>
			<path fill="#1A122E" d="M515.789,502.329c-1.293,0.45-31.876,10.663-52.956-17.069c-2.547-3.346-7.319-3.997-10.667-1.454
				c-3.347,2.545-3.997,7.319-1.454,10.666c14.96,19.682,34.834,25.282,50.689,25.282c7.832,0,14.685-1.366,19.477-3.079
				c3.947-1.41,5.996-5.738,4.604-9.692C524.092,503.034,519.756,500.954,515.789,502.329z"/>
		</g>
	</g>
</g>
</svg>
