<?xml version="1.0" encoding="utf-8"?>
<!-- Generator: Adobe Illustrator 23.0.6, SVG Export Plug-In . SVG Version: 6.00 Build 0)  -->
<svg version="1.1" id="Layer_1" xmlns="http://www.w3.org/2000/svg" xmlns:xlink="http://www.w3.org/1999/xlink" x="0px" y="0px"
	 viewBox="0 0 1200 1200" enable-background="new 0 0 1200 1200" xml:space="preserve">
<g>
	<g>
		<path fill="#312A2A" d="M895.778,434.965c0,0,51.221-283.932-144.513-335.388c0,0-105.939-104.93-357.165,18.161l12.107,13.116
			c0,0-71.635,40.358-89.796,86.769l16.143,1.009c0,0-58.518,114.862-16.143,214.321l23.206,4.619c0,0,17.152-43.384,34.304-61.545
			l137.122-82.733l0.223,52.465l67.595-86.841c0,0-0.35,71.707,13.887,86.841l40.629-35.313l-0.159,36.322l94.84-99.036
			c0,0,7.749,60.065,34.563,19.308c0,0,103.856,103.244,97.608,174.124C860.23,441.164,875.8,429.573,895.778,434.965z"/>
		<path fill="#473F3F" d="M740.923,132.872c-2.606-2.606-10.426-7.819-15.639-13.032c-104.257-62.554-247.611-36.49-312.771,62.554
			c10.426-5.213,18.245-2.606,28.671,0c-50.831,59.671-99.775,141.829-86.479,222.641c5.708-10.788,12.459-21.854,19.216-29.008
			l137.122-82.733l0.223,52.465l67.595-86.841c0,0-0.35,71.707,13.887,86.841l40.629-35.313l-0.158,36.322l94.84-99.036
			c0,0,7.749,60.065,34.563,19.308c0,0,85.716,85.217,96.714,153.962C864.504,307.006,851.699,186.35,740.923,132.872z"/>
	</g>
	<g>
		<path fill="#312A2A" d="M759.336,705.754c-15.134-13.786-44.487-33.099-44.487-33.099l-42.488,14.763
			c2.82,71.263-72.36,133.551-72.36,133.551c-62.478-46.411-70.906-132.815-70.906-132.815l-39.145-15.499l-46.411,33.099
			l-71.466,165.662c21.357,25.224,55.322,25.306,55.322,25.306l10.663,28.681c0,0,4.731,1.174,12.192,2.904
			c-18.417,84.073,29.61,179.201,29.61,179.201c-8.745,8.502-30.268,32.286,25.832,34.51c56.1,2.223,31.222-36.527,31.222-36.527
			s33.751-83.406,63.572-81.388c29.822,2.018,65.131,83.406,65.131,83.406s-33.072,30.941,29.603,34.304
			c62.675,3.363,25.439-35.649,25.439-35.649c41.703-65.917,32.572-177.945,32.572-177.946c5.108-1.696,8.122-2.813,8.122-2.813
			l2.018-32.435c48.43,3.391,67.599-23.57,67.599-23.57L759.336,705.754z M565.762,927.972C583.422,910.503,600,883.523,600,883.523
			s9.378,15.105,31.066,45.212C612.548,933.391,579.596,929.81,565.762,927.972z"/>
		<g>
			<path fill="#473F3F" d="M707.039,1102.463c20.851-52.129,20.851-112.076-13.032-158.992c15.639-7.819,33.884,2.606,39.096-13.032
				c7.819-18.245,0-39.096-5.213-57.341c-13.032-41.703-23.458-80.799-36.49-122.502c5.213,0,13.032,2.606,13.032,0
				c17.457-29.927-5.654-45.525-32.798-46.817C663.939,767.945,600,820.969,600,820.969c-50.015-37.153-65.38-99.892-69.525-123.461
				c-8.913,2.198-17.825-1.269-26.738,0.959c-15.639,10.426-13.032,33.884-13.032,52.129c5.213-2.606,10.426,2.606,15.639,5.213
				c-28.671,52.129-49.522,119.896-26.064,174.631c5.213,10.426,26.064,10.426,39.096,15.639
				c-44.309,44.309-18.245,114.683-20.851,166.811c-0.607,9.515-1.111,19.029-1.57,28.544c2.687,0.256,5.571,0.459,8.736,0.585
				c56.1,2.223,31.222-36.527,31.222-36.527s33.751-83.406,63.572-81.388c29.822,2.018,65.131,83.406,65.131,83.406
				s-33.072,30.941,29.603,34.304c4.921,0.264,9.161,0.241,12.916,0.021C708.604,1128.658,702.096,1113.999,707.039,1102.463z
				 M565.762,927.972C583.422,910.503,600,883.523,600,883.523s9.378,15.105,31.066,45.212
				C612.548,933.391,579.596,929.81,565.762,927.972z"/>
			<path fill="#473F3F" d="M443.79,745.383c-31.84,41.637-45.269,90.179-59.749,136.974c11.973,8.505,25.035,11.98,33.661,13.391
				c9.989-49.122,18.787-97.882,36.514-145.152C456.822,747.989,446.397,742.776,443.79,745.383z"/>
			<path fill="#473F3F" d="M754.568,745.383c31.84,41.637,45.269,90.179,59.749,136.974c-11.973,8.505-25.035,11.98-33.661,13.391
				c-9.989-49.122-18.787-97.882-36.514-145.152C741.536,747.989,751.962,742.776,754.568,745.383z"/>
		</g>
	</g>
	<g>
		<path fill="#5C341F" d="M446.575,954.184c0,0-18.905,0.874-23.889-28.782c0,0-33.244,10.585-44.2-9.594l-19.027,25.2h-60.536
			l-16.143,113.696c0,0,98.203,15.808,174.883,3.701C457.663,1058.406,450.285,1010.048,446.575,954.184z"/>
		<path fill="#69402B" d="M360.84,939.181l-1.38,1.828h-29.843c-12.385,38.097-14.37,78.428-20.412,117.136
			c30.141,3.355,81.381,7.336,128.612,2.76c-5.406-37.181-15.218-72.108-22.697-107.008
			C394.036,958.762,376.99,950.507,360.84,939.181z"/>
	</g>
	<g>
		<g>
			<path fill="#E5E0B9" d="M529.095,688.154c0,0,106.793,20.9,143.266-0.736c0,0-16.119,103.283-72.36,133.551
				C600,820.969,530.573,747.037,529.095,688.154z"/>
			<path fill="#E5E0B9" d="M600,883.523l31.066,45.212c0,0-19.627,11.581-59.184,0L600,883.523z"/>
		</g>
		<g>
			<path fill="#F7F4DB" d="M558.177,766.022C577.753,797.267,600,820.969,600,820.969c20.82-11.205,36.13-32.419,47.17-54.692
				C622.028,744.922,580.488,741.646,558.177,766.022z"/>
			<path fill="#F7F4DB" d="M672.36,687.418c-13.297,7.888-35.944,10.109-59.351,9.764c11.5,19.52,26.772,36.155,41.48,52.791
				C667.658,717.513,672.36,687.418,672.36,687.418z"/>
			<path fill="#F7F4DB" d="M593.191,696.353c-33.818-2.275-64.096-8.199-64.096-8.199c0.507,20.202,9.014,42.174,19.969,62.326
				C568.429,735.374,578.942,714.395,593.191,696.353z"/>
		</g>
	</g>
	<g>
		<polygon fill="#A1201D" points="628.253,727.748 601.522,699.896 573.691,728.483 585.799,748.975 575.373,789.356 600,820.969 
			626.053,791.037 614.302,750.48 		"/>
		<path fill="#BE2C2C" d="M615.543,748.457l6.948-11.32c-5.815-6.009-11.802-12.049-19.709-15.212
			c-10.4-2.08-17.478,7.454-23.887,15.366l6.712,11.361C595.587,749.187,605.565,747.559,615.543,748.457z"/>
		<path fill="#BE2C2C" d="M582.904,760.183l-7.532,29.173L600,820.969l26.053-29.932l-9.414-32.491
			C605.394,760.59,594.15,762.605,582.904,760.183z"/>
	</g>
	<g>
		<g>
			<path fill="#F1CDA7" d="M764.381,273.115c0,0,90.805,87.899,95.849,168.049c0,0,68.608-27.806,53.474,49.882
				c-11.88,54.483-73.571,45.823-73.571,45.823s-47.831,159.103-241.719,159.103S359.46,536.868,359.46,536.868
				s-47.069,15.05-67.928-42.796c-20.859-57.846,25.552-75.716,51.112-50.301c0,0-1.345-31.086,28.923-64.718
				c34.977-20.179,143.942-86.096,143.942-86.096l0.673,48.429l62.714-77.495c0,0-5.541,64.715,7.912,81.53l46.57-29.596
				c0,0,0,45.739,88.628-66.299C722.005,249.527,734.113,311.118,764.381,273.115z"/>
			<path fill="#F1CDA7" d="M780.656,895.747l41.766-12.224c0,0,10.836,36.683-15.666,41.88
				C780.254,930.599,780.656,895.747,780.656,895.747z"/>
			<path fill="#F1CDA7" d="M378.487,886.214l48.908,10.508c0,0,4.856,38.972-33.631,23.206
				C366.36,908.703,378.487,886.214,378.487,886.214z"/>
		</g>
		<g>
			<path fill="#F7E3C9" d="M449.003,599.423c49.522,75.586,138.141,72.98,216.334,54.735
				c70.374-18.245,112.076-88.619,138.141-153.779c23.58-58.951,18.848-117.9,4.82-176.147
				c-22.568-30.424-43.917-51.116-43.917-51.116c-30.268,38.003-42.375-23.588-42.375-23.588
				c-88.628,112.038-88.628,66.299-88.628,66.299l-46.57,29.596c-13.453-16.816-7.912-81.53-7.912-81.53l-62.714,77.495
				l-0.673-48.429c0,0-9.138,5.528-22.958,13.864c-30.41,37.893-66.912,72.739-82.645,117.971
				C389.055,482.133,412.513,544.688,449.003,599.423z"/>
		</g>
	</g>
	<g>
		<ellipse fill="#F1BDA7" cx="453.266" cy="542.946" rx="44.754" ry="27.806"/>
		<ellipse fill="#F1BDA7" cx="745.186" cy="542.946" rx="44.754" ry="27.806"/>
	</g>
	<path fill="#E08285" d="M529.095,542.946H672.36c0,0,5.238,64.128-79.17,64.128C535.253,608.419,529.095,542.946,529.095,542.946z"
		/>
	<path fill="#F19598" d="M540.62,577.62c9.012,15.453,24.86,30.097,52.571,29.454c33.686,0,55.673-15.433,66.834-27.708
		C622.912,562.328,592.749,562.68,540.62,577.62z"/>
	<g>
		<path fill="#1A122E" d="M439.545,466.668c-4.215,0.904-6.895,5.047-6.002,9.265c0.891,4.215,5.012,6.909,9.262,6.031
			c0.318-0.066,31.987-6.438,46.941,12.789c1.542,1.982,3.849,3.019,6.178,3.019c1.677,0,3.367-0.537,4.795-1.647
			c3.408-2.651,4.024-7.565,1.372-10.973C481.072,458.13,441.23,466.308,439.545,466.668z"/>
		<path fill="#1A122E" d="M908.551,435.876c-1.469-1.107-3.008-2.063-4.58-2.929c14.431-123.157-2.809-216.899-51.301-278.628
			c-40.367-51.384-88.904-62.506-100.332-64.475C701.931,48.399,623.15,39.07,524.302,62.874
			c-74.528,17.947-133.439,47.777-135.911,49.039c-2.354,1.201-3.94,3.509-4.223,6.136c-0.28,2.627,0.786,5.217,2.833,6.888
			l8.214,6.704c-70.872,39.846-105.996,103.599-107.523,106.421c-1.759,3.247-1.008,7.28,1.802,9.675
			c2.808,2.39,6.911,2.5,9.838,0.248l23.043-17.71c-42.495,91.265-24.865,176.107-18.556,199.696
			c-4.041,1.276-7.918,3.237-11.459,5.906c-14.06,10.596-23.893,33.525-9.318,66.099c15.697,35.089,41.527,41.894,59.21,41.894
			c5.567,0,10.323-0.675,13.703-1.355c17.99,47.459,46.458,85.162,85.249,112.645c10.841,7.681,21.918,14.153,32.988,19.607
			c-5.879,5.371-17.008,13.774-34.22,19.889c-2.039,0.725-3.686,2.26-4.551,4.243c-0.514,1.178-51.571,118.33-72.985,169.891
			c-0.891,2.143-0.781,4.569,0.293,6.625c0.176,0.337,1.404,2.596,3.934,5.698c-0.011,0.032-0.031,0.058-0.042,0.091
			c-2.528,7.301-3.945,19.736,1.058,30.964c-0.673,0.63-1.259,1.371-1.689,2.248l-9.957,20.322c-0.256,0.524-0.438,1.064-0.57,1.608
			l-57.164-4.133c-4.33-0.277-8.051,2.932-8.364,7.234c-0.079,1.093,0.075,2.148,0.412,3.122c-0.167,0.483-0.291,0.984-0.361,1.498
			l-14.982,109.918c-0.547,4.009,2.057,7.773,5.999,8.677l30.338,6.956c0.118,0.027,0.24,0.02,0.359,0.042
			c0.143,0.026,0.274,0.078,0.42,0.096c0.299,0.037,0.597,0.052,0.892,0.056c0.016,0,0.032,0.006,0.048,0.006l143.139,0.546
			c3.751,12.759,8.262,24.788,13.692,35.242c-5.752,6.689-14.172,19.029-9.825,30.121c5.376,13.709,25.13,14.073,31.621,14.193
			c2.886,0.053,5.681,0.084,8.384,0.084c26.838,0,44.605-2.927,50.586-14.704c4.897-9.637-0.56-20.668-6.465-29.205
			c17.74-35.843,43.209-72.903,56.265-74.633c13.056,1.73,38.528,38.79,56.265,74.633c-5.903,8.537-11.36,19.571-6.465,29.208
			c5.984,11.775,23.745,14.702,50.586,14.702c2.703,0,5.5-0.031,8.384-0.084c6.491-0.12,26.248-0.484,31.621-14.193
			c4.347-11.093-4.073-23.435-9.825-30.121c27.457-52.859,31.472-145.902,32.056-170.613c0.5-0.134,0.869-0.234,1.026-0.276
			c3.006-0.817,5.238-3.342,5.684-6.424c0.581-4.017,0.95-8.209,1.15-12.523c2.585,8.176,6.685,13.807,12.462,16.98
			c3.474,1.906,7.325,2.864,11.607,2.864c5.73-0.003,12.225-1.716,19.589-5.152c25.026-11.67,23.829-37.322,19.698-49.255
			c-0.011-0.033-0.032-0.061-0.043-0.094c2.528-3.1,3.756-5.358,3.933-5.694c1.074-2.057,1.184-4.482,0.293-6.625
			c-21.411-51.561-72.471-168.713-72.985-169.891c-0.865-1.983-2.512-3.518-4.551-4.243c-17.214-6.116-28.34-14.519-34.219-19.89
			c11.07-5.453,22.146-11.926,32.987-19.606c38.792-27.482,67.261-65.185,85.25-112.644c3.38,0.68,8.136,1.354,13.702,1.354
			c17.682,0,43.513-6.809,59.21-41.894C932.445,469.399,922.612,446.471,908.551,435.876z M353.54,205.71
			c2.018-3.206,1.446-7.397-1.354-9.946c-2.802-2.552-7.028-2.725-10.029-0.417l-8.636,6.638
			c18.507-20.762,44.974-44.762,79.259-61.978c2.367-1.19,3.973-3.499,4.263-6.133c0.288-2.634-0.776-5.237-2.83-6.913l-7.758-6.332
			c47.672-21.878,238.677-101.179,337.492-17.42c1.171,0.994,2.609,1.62,4.136,1.8c0.506,0.061,51.154,6.604,92.291,58.97
			c45.492,57.912,61.747,146.851,48.386,264.378c-7.404-0.612-14.959,0.931-21.765,4.596c0.158-2.589,0.312-5.182,0.431-7.806
			c0.033-0.743-0.038-1.486-0.216-2.209c-0.916-3.758-23.341-92.792-99.375-158.505c-1.667-1.437-3.877-2.087-6.055-1.828
			c-2.184,0.261-4.172,1.451-5.45,3.24c-1.797,2.512-5.641,5.912-7.891,5.437c-0.774-0.158-7.723-2.342-13.765-29.899
			c-0.626-2.855-2.792-5.122-5.615-5.878c-2.825-0.756-5.831,0.125-7.801,2.284l-76.075,83.424l2.418-14.221
			c0.552-3.24-0.982-6.48-3.838-8.106c-2.858-1.63-6.424-1.293-8.932,0.836l-42.235,35.878
			c-5.424-19.896-12.956-64.19,13.279-100.933c2.497-3.499,1.703-8.356-1.779-10.878c-3.477-2.519-8.344-1.76-10.886,1.707
			l-70.343,95.832l3.164-30.906c0.311-3.024-1.161-5.952-3.77-7.51c-2.612-1.56-5.887-1.465-8.402,0.244
			c-1.072,0.728-107.701,72.989-146.245,87.602c-1.604,0.607-2.96,1.724-3.866,3.179l-29.086,46.721
			c-0.835,1.343-1.245,2.907-1.173,4.487c0.12,2.624,0.273,5.217,0.431,7.806c-4.515-2.432-9.357-3.951-14.274-4.505
			C314.478,409.814,290.164,306.447,353.54,205.71z M297.316,495.588c-10.82-24.187-4.793-40.253,4.457-47.222
			c8.697-6.557,20.358-6.057,29.025,1.241c1.353,1.137,2.977,1.71,4.613,1.799c2.775,27.553,7.906,52.988,15.366,76.269
			C339.329,529.638,312.69,529.948,297.316,495.588z M694.033,688.152c3.282,9.447,10.201,31.403,12.897,55.52l-15.832,1.759
			c-1.004,0.111-1.934,0.423-2.777,0.868c-6.807-7.076-13.086-11.151-15.961-12.818c8.597-20.753,9.465-34.153,8.831-41.398
			C685.422,690.898,689.706,689.594,694.033,688.152z M535.162,747.772c8.542,16.78,21.597,37.33,41.226,62.017
			c-29.313-14.557-54.276-27.969-65.345-34.002C518.772,759.437,530.504,750.743,535.162,747.772z M572.339,736.09l6.522,12.856
			l-7.016,28.748c-6.186-8.792-11.35-16.849-15.641-24.196L572.339,736.09z M622.051,748.946l6.522-12.856l16.131,17.404
			c-4.289,7.349-9.452,15.406-15.637,24.198L622.051,748.946z M599.421,896.721c4.687,8.274,11.368,19.032,19.317,28.924
			c-15.712,2.62-29.992,1.018-37.317-0.237C588.898,915.597,595.083,904.959,599.421,896.721z M665.749,747.772
			c4.644,2.961,16.323,11.612,24.053,27.88c-11.075,5.754-35.485,18.326-63.749,32.208
			C644.833,784.029,657.431,764.113,665.749,747.772z M665.618,695.98c-0.048,6.803-1.978,20.686-13.043,43.002l-33.831-36.501
			C632.194,701.678,648.226,699.814,665.618,695.98z M606.173,749.842l10.426,42.711c0.118,0.484,0.285,0.941,0.484,1.378
			c-5.016,6.505-10.536,13.344-16.626,20.542c-6.09-7.198-11.611-14.037-16.626-20.542c0.199-0.438,0.366-0.895,0.484-1.378
			l10.426-42.711c0.443-1.812,0.224-3.726-0.621-5.391l-10.445-20.59l16.783-18.107l16.783,18.107l-10.445,20.59
			C605.949,746.116,605.73,748.03,606.173,749.842z M548.33,738.99c-11.137-22.439-13.03-36.326-13.077-43.018
			c17.408,3.84,33.454,5.706,46.914,6.509L548.33,738.99z M528.551,733.48c-2.875,1.667-9.154,5.742-15.961,12.818
			c-0.843-0.445-1.773-0.756-2.777-0.868l-15.832-1.759c2.695-24.068,9.619-46.058,12.902-55.518
			c4.325,1.442,8.607,2.744,12.837,3.929C519.086,699.328,519.954,712.728,528.551,733.48z M448.428,708.2
			c23.052-8.853,36.098-21.173,41.015-26.545c0.915,0.378,1.828,0.746,2.742,1.112c-3.883,11.08-12.41,38.128-14.491,67.271
			c-0.3,4.19,2.762,7.865,6.936,8.328l17.104,1.9c-2.958,4.747-5.706,10.153-7.951,16.327c-1.313,3.609,0.191,7.639,3.546,9.504
			c0.454,0.252,45.411,25.22,95.42,49.055l-1.084,41.814c-9.987,22.634-32.261,58.898-49.81,60.363
			c-22.923,1.909-78.732-11.925-95.86-16.367c-5.528-58.136,30.577-152.736,30.954-153.711c1.55-4.032-0.456-8.555-4.487-10.108
			c-4.037-1.555-8.552,0.453-10.105,4.482c-1.317,3.416-26.268,68.819-31.563,126.355c-0.688-0.13-1.394-0.203-2.124-0.14
			c-31.012,2.767-45.401-10.856-50.181-16.921C398.621,822.687,440.438,726.547,448.428,708.2z M380.074,892.968
			c8.437,5.423,20.349,10.159,36.622,10.811c-1.225,8.221-3.527,13.51-6.711,15.257c-3.309,1.817-9.367,0.837-17.061-2.752
			C380.734,910.599,379.416,899.98,380.074,892.968z M408.512,940.18v-4.721c3.249-0.316,6.251-1.203,9-2.713
			c0.4-0.219,0.755-0.504,1.138-0.746l1.333,9.01L408.512,940.18z M438.058,942.317c-0.003,0-0.005-0.001-0.008-0.001l-2.086-0.151
			l-1.237-8.36c0.636,0.396,1.334,0.705,2.081,0.908c0.157,0.043,0.528,0.143,1.028,0.277
			C437.884,937.001,437.954,939.459,438.058,942.317z M378.022,925.403c2.375,1.871,5.121,3.575,8.291,5.054
			c0.042,0.02,0.081,0.036,0.123,0.055l-1.409,7.97l-12.956-0.937L378.022,925.403z M304.39,954.184l14.012,2.383l-11.996,95.872
			l-14.941-3.426L304.39,954.184z M321.944,1054.208l12.001-95.914l105.221,5.373c1.651,24.714,5.211,59.032,12.878,91.038
			L321.944,1054.208z M536.715,1128.214c-1.046,2.052-7.473,6.743-44.739,6.068c-12.485-0.232-16.807-2.891-17.349-4.266
			c-0.993-2.521,2.827-9.515,8.16-15.38l48.328,0.064C536.721,1122.789,537.347,1126.97,536.715,1128.214z M726.285,1130.016
			c-0.54,1.375-4.862,4.034-17.349,4.266c-37.249,0.687-43.693-4.016-44.737-6.068c-0.634-1.245-0.006-5.426,5.6-13.513
			l48.328-0.064C723.461,1120.507,727.277,1127.496,726.285,1130.016z M716.817,1099l-46.13,0.061
			c-9.867-19.881-39.748-75.9-66.106-82.63c-0.977-0.439-2.053-0.696-3.194-0.696c-0.309,0-0.622,0.054-0.932,0.07
			c-0.31-0.016-0.623-0.07-0.932-0.07c-1.141,0-2.217,0.257-3.194,0.696c-26.358,6.73-56.239,62.749-66.106,82.63l-46.13-0.061
			c-24.472-46.397-29.466-130.893-30.47-159.973c22.193,5.453,60.993,14.103,83.811,14.101c2.041,0,3.958-0.069,5.719-0.216
			c9.551-0.797,18.648-6.569,26.821-14.477c0.687,0.452,1.436,0.831,2.274,1.053c0.736,0.193,12.551,3.245,28.9,3.245
			c8.389,0,17.97-0.804,27.859-3.207c0.666-0.162,1.273-0.429,1.849-0.739c8.361,7.727,17.516,13.343,26.895,14.125
			c1.764,0.148,3.678,0.216,5.722,0.216c22.822,0,61.621-8.65,83.814-14.102C746.285,968.106,741.29,1052.603,716.817,1099z
			 M807.985,916.284c-7.689,3.589-13.755,4.569-17.059,2.752c-3.184-1.747-5.486-7.036-6.711-15.258
			c16.276-0.654,28.19-5.392,36.627-10.817C821.48,899.924,820.167,910.603,807.985,916.284z M752.484,708.2
			c7.99,18.347,49.805,114.477,69.938,162.713c-4.816,6.114-19.161,19.716-50.179,16.929c-0.731-0.066-1.437,0.004-2.125,0.133
			c-5.297-57.535-30.246-122.933-31.563-126.348c-1.553-4.029-6.073-6.038-10.108-4.482c-4.029,1.553-6.038,6.078-4.482,10.108
			c0.374,0.977,36.487,95.534,30.951,153.711c-17.128,4.442-72.883,18.286-95.863,16.367c-17.29-1.443-40.507-36.302-51.78-59.09
			l1.153-44.454c48.906-23.374,94.526-47.353,94.995-47.598c3.459-1.822,5.042-5.918,3.706-9.593
			c-2.245-6.174-4.993-11.579-7.951-16.327l17.104-1.9c4.174-0.463,7.236-4.139,6.936-8.328
			c-2.081-29.143-10.608-56.191-14.491-67.271c0.914-0.365,1.828-0.734,2.743-1.112C716.387,687.027,729.433,699.347,752.484,708.2z
			 M601.324,687.369c-0.293,0-0.583,0.015-0.868,0.048c-0.285-0.033-0.575-0.048-0.868-0.048
			c-55.771,0-238.18-18.825-250.362-260.516l26.431-42.456c33.181-13.535,103.219-59.128,133.121-79.005l-4.396,42.94
			c-0.359,3.51,1.677,6.825,4.969,8.094c3.296,1.271,7.028,0.174,9.112-2.67l53.974-73.531c-4.465,37.844,8.277,69.909,9.074,71.856
			c0.944,2.321,2.948,4.048,5.383,4.643c2.433,0.593,5.009-0.015,6.918-1.637l34.769-29.537l-3.284,19.31
			c-0.583,3.421,1.161,6.816,4.279,8.339c3.121,1.521,6.867,0.806,9.207-1.759l84.373-92.523c5.439,16.899,12.65,25.8,22.249,27.707
			c7.354,1.462,13.549-1.886,17.774-5.408c63.606,58.157,85.931,134.669,88.568,144.403
			C840.107,668.45,657.186,687.369,601.324,687.369z M903.596,495.588c-15.373,34.36-42.01,34.049-53.458,32.086
			c7.46-23.282,12.591-48.717,15.366-76.27c1.639-0.087,3.262-0.66,4.613-1.798c8.667-7.299,20.325-7.794,29.022-1.242
			C908.389,455.335,914.416,471.4,903.596,495.588z"/>
		<path fill="#1A122E" d="M673.716,536.868h-70.933h-4.653h-70.934c-2.212,0-4.322,0.938-5.803,2.58
			c-1.484,1.643-2.202,3.836-1.975,6.038c0.071,0.696,7.98,69.576,80.759,69.576c0.092,0,0.178-0.024,0.269-0.027
			c0.087,0.003,0.169,0.027,0.258,0.027c0.16,0,0.318,0,0.479,0c70.738,0,80.206-68.701,80.293-69.397
			c0.28-2.226-0.41-4.466-1.894-6.148C678.096,537.833,675.961,536.868,673.716,536.868z M601.169,599.423
			c-0.143,0-0.285-0.013-0.433,0c-0.096,0-0.185,0.025-0.28,0.028c-0.095-0.003-0.185-0.028-0.28-0.028
			c-44.813,0-59.088-31.276-63.425-46.916h61.378h4.653h61.175C659.281,568.26,644.544,599.423,601.169,599.423z"/>
		<path fill="#1A122E" d="M761.367,466.668c-1.685-0.361-41.53-8.54-62.547,18.484c-2.652,3.408-2.036,8.322,1.372,10.973
			c1.428,1.11,3.118,1.647,4.795,1.647c2.329,0,4.635-1.037,6.177-3.019c14.921-19.183,46.48-12.887,46.939-12.79
			c4.23,0.89,8.367-1.793,9.27-6.011C768.278,471.729,765.59,467.573,761.367,466.668z"/>
	</g>
	<path fill="#231F20" d="M769.09,423.02h-75.986c-21.559,0-39.096,17.539-39.096,39.096v3.378H548.959v-3.378
		c0-21.558-17.537-39.096-39.096-39.096h-75.986c-21.559,0-39.096,17.539-39.096,39.096v25.572
		c0,21.558,17.537,39.096,39.096,39.096h75.986c21.559,0,39.096-17.539,39.096-39.096v-6.556h105.049v6.556
		c0,21.558,17.537,39.096,39.096,39.096h75.986c21.559,0,39.096-17.539,39.096-39.096v-25.572
		C808.186,440.559,790.649,423.02,769.09,423.02z M533.32,487.689c0,12.934-10.522,23.458-23.458,23.458h-75.986
		c-12.935,0-23.458-10.524-23.458-23.458v-25.572c0-12.934,10.522-23.458,23.458-23.458h75.986
		c12.935,0,23.458,10.524,23.458,23.458V487.689z M792.548,487.689c0,12.934-10.522,23.458-23.458,23.458h-75.986
		c-12.935,0-23.458-10.524-23.458-23.458v-25.572c0-12.934,10.522-23.458,23.458-23.458h75.986
		c12.935,0,23.458,10.524,23.458,23.458V487.689z"/>
</g>
</svg>
