<?xml version="1.0" encoding="utf-8"?>
<!-- Generator: Adobe Illustrator 23.0.6, SVG Export Plug-In . SVG Version: 6.00 Build 0)  -->
<svg version="1.1" id="Layer_1" xmlns="http://www.w3.org/2000/svg" xmlns:xlink="http://www.w3.org/1999/xlink" x="0px" y="0px"
	 viewBox="0 0 1200 1200" enable-background="new 0 0 1200 1200" xml:space="preserve">
<g>
	<g>
		<path fill="#F0C8B9" d="M416.831,408.016h137.807l12.017-80.589l19.285,80.589l205.27,3.916c0,0,3.365,179.975-24.126,209.582
			s-92.679,47.698-127.363,55.348c0,0-13.618,26.734-42.78,35.126l-42.303-35.126c0,0-106.211-24.071-124.274-60.535
			S399.575,472.742,416.831,408.016z"/>
		<path fill="#F6E2CF" d="M400.943,803.816l34.006,22.185c0,0-11.479,31.923-49.466,19.271
			C347.495,832.62,379.306,799.969,400.943,803.816z"/>
		<path fill="#F6E2CF" d="M702.112,725.057c0,0-43.292-14.272-20.105-47.762c23.187-33.49,47.884,30.497,47.884,30.497
			s54.455,24.981,28.801,55.554C733.038,793.92,702.112,725.057,702.112,725.057z"/>
	</g>
	<g>
		<path fill="#F6E2CF" d="M508.775,621.077c35.228,51.487,108.394,51.487,157.171,24.389
			c82.251-46.683,97.003-146.24,81.707-234.365l-161.712-3.085l-19.285-80.589l-12.017,80.589h-92.527
			C460.348,480.689,464.111,556.562,508.775,621.077z"/>
	</g>
	<path fill="#FBF3E7" d="M566.655,565.132h66.772c0,0,7.079,51.195-34.005,51.195S566.655,565.132,566.655,565.132z"/>
	<g>
		<g>
			<path fill="#EAA1A4" d="M851.002,395.681c0,0-31.644-187.199-241.876-187.199c-96.09-4.196-166.139,47.697-166.139,47.697
				s33.232,26.78,37.578,56.151c0,0-39.713,12.533,9.59,35.638l-52.325,60.049h116.809l11.326-86.246l19.976,86.246l205.27,3.916
				c0,0,7.451,206.785-49.248,228.77c-56.698,21.985-43.202,22.554-32.118,33.808c11.084,11.254,44.262,70.344,113.884,18.398
				c0,0,82.869-7.69,88.114-92.908S851.002,395.681,851.002,395.681z"/>
			<path fill="#EAA1A4" d="M408.656,414.847c0,0-5.303,168.977,21.708,201.48c27.011,32.502,59.79,40.45,59.79,40.45
				s-18.453,92.341-111.864,34.698c0,0-93.734-2.391-90.587-118.914c-0.078-87.152,60.84-171.07,60.84-171.07
				S380.12,436.803,408.656,414.847z"/>
		</g>
		<g>
			<path fill="#F0BEC2" d="M706.593,268.798c-71.954-52.105-166.612-24.692-242.4,9.426c7.493,9.677,14.529,21.654,16.372,34.106
				c0,0-39.713,12.533,9.59,35.638l-52.325,60.049h116.809l11.326-86.246l19.976,86.246l178.213,3.4
				C763.588,357.973,753.531,302.325,706.593,268.798z"/>
			<path fill="#F0BEC2" d="M847.505,656.305c21.679-10.839,37.938-32.518,43.358-56.907
				c16.259-92.135-46.067-159.881-81.295-233.047c-2.71,2.71-10.839-5.42-10.839,5.42c-3.652,14.607-4.857,27.979-9.391,40.125
				l1.873,0.036c0,0,4.2,116.61-17.719,184.004c-3.842,38.09-15.118,75.329-43.735,100.743
				c17.946,16.245,46.997,29.631,90.909-1.562C826.117,679.265,832.939,664.398,847.505,656.305z"/>
			<path fill="#F0BEC2" d="M468.26,696.674c-19.894-22.687-32.224-50.373-36.906-79.191c-0.329-0.387-0.662-0.761-0.99-1.156
				c-21.52-25.895-22.529-138.416-22.049-183.095c-13.542,10.779-36.757,5.876-43.162,14.416
				c-46.067,43.358-54.197,119.233-37.938,181.56c5.42,18.969,24.389,24.389,37.938,35.228c8.691,6.953,16.249,18.375,20.565,31.387
				C427.099,718.823,452.746,711.101,468.26,696.674z"/>
		</g>
	</g>
	<g>
		<path fill="#5BB5C7" d="M443.301,252.538c0,0,41.434-44.057,165.825-44.057s225.009,97.904,244.981,193.011l26.751,58.046
			c0,0,58.258-67.851,44.271-166.797c-13.986-98.946-99.011-252.216-370.491-234.323S220.868,322.813,314.951,461.106l33.593-59.613
			l-31.469-44.581l43.3-22.143c0,0-2.71-35.551,28.516-36.6l23.995-65.548L443.301,252.538z"/>
		<path fill="#70C7D9" d="M925.129,292.742c-13.986-98.946-99.011-252.216-370.491-234.323
			c-140.224,9.242-224.631,79.476-260.514,164.285c-3.914,17.493-3.826,35.565,3.282,54.224
			c5.42,13.549,27.098,21.679,32.518,13.549c48.777-65.036,98.717-123.696,185.432-139.955
			c135.492-24.389,267.112,20.722,337.568,145.374c10.839,21.679,46.067,40.648,70.456,27.098c1.344-0.806,2.617-1.654,3.882-2.506
			C927.143,311.549,926.48,302.294,925.129,292.742z"/>
	</g>
	<g>
		<g>
			<g>
				<path fill="#5BB5C7" d="M600.321,872.768c0,0-76.218,39.923-142.494-40.498c0,0-54.598-13.287-63.933-46.155
					s27.728-37.064,34.722-30.071l65.036-94.485l54.547,11.266l53.506,37.573l45.185-35.171l35.968-6.111
					c0,0-23.414,30.922,7.252,50.969c0,0-17.583,49.599-4.221,102.57c0,0-22.921,22.901-3.031,46.678
					C682.858,869.334,648.948,899.28,600.321,872.768z"/>
				<g>
					<path fill="#5BB5C7" d="M535.399,1101.298l50.542-2.763c0,0,49.063,38.424-12.347,35.209
						C507.988,1139.969,535.399,1101.298,535.399,1101.298z"/>
					<path fill="#5BB5C7" d="M619.835,1101.298c0,0,38.107,3.53,51.506-10.106c0,0,17.221,51.209-24.451,50.875
						S619.835,1101.298,619.835,1101.298z"/>
				</g>
			</g>
			<g>
				<path fill="#70C7D9" d="M481.676,753.86c5.42-10.839,10.839-43.358-5.42-32.518c-32.518,18.969-32.518,51.487-70.456,67.746
					c-2.145,0-4.273,6.793-2.386,13.656c9.433,10.567,23.315,18.012,34.702,22.785c1.089-1.339,2.073-2.664,2.912-3.923
					C457.288,797.217,468.127,778.248,481.676,753.86z"/>
				<path fill="#70C7D9" d="M655.106,808.057c-8.13-29.808-32.518-48.777-32.518-81.295c16.259,2.71,43.357-2.71,32.518-21.679
					c-3.871-9.677-17.405-9.702-28.78-13.848L601.705,710.4l-35.62-25.013c-14.43,9.457-35.164,5.68-46.471,16.986
					c-8.13,5.42,2.71,21.679,16.259,21.679c-18.108,43.007-26.784,93.562-60.729,126.426
					c61.54,55.605,125.178,22.291,125.178,22.291c29.193,15.916,53.068,11.482,67.5,5.398
					C662.195,855.431,660.301,832.298,655.106,808.057z"/>
			</g>
		</g>
		<path fill="#70C7D9" d="M720.193,754.92c0,0,23.212,28.734,38.499,8.426c15.287-20.308-2.878-44.187-2.878-44.187
			s44.138-3.995,49.732,41.97c5.594,45.965-55.101,63.392-85.176,34.776C690.295,767.29,720.193,754.92,720.193,754.92z"/>
	</g>
	<g>
		<path fill="#D63D68" d="M388.89,298.169c0,0,4.418-43.506,23.995-65.548c0,0,48.381,22.015,70.169,86.003l-21.603,6.974
			l28.704,22.37l-41.457,47.576l-53.885,25.821c0,0-37.877,6.353-77.738-64.453l43.3-22.143
			C360.375,334.768,356.858,302.889,388.89,298.169z"/>
		<path fill="#F55389" d="M461.45,325.598l21.603-6.974c-21.787-63.987-70.169-86.003-70.169-86.003
			c-6.336,7.134-11.077,16.516-14.601,25.944c13.889,20.828,25.596,46.349,7.517,64.429c-2.05-12.297-11.846-16.849-20.017-24.196
			c-24.3,5.34-25.671,27.512-25.511,34.105c3.974,5.73,6.48,11.46,10.3,17.19c-10.839,2.71-18.969,10.839-16.259,21.679
			c5.42,13.549,18.969,24.389,29.808,27.098c27.098,2.71,16.259-32.518,21.679-48.777c10.489,18.881,29.085,29.656,44.499,43.612
			l39.855-45.738L461.45,325.598z"/>
	</g>
	<g>
		<path fill="#E5E0B9" d="M457.828,836.554c0,0,44.053,69.02,145.535,36.215c0,0,45.877,23.14,83.82-6.931l11.369,6.931
			c0,0,10.545,55.252,48.253,61.602l-49.651,17.483l-1.399,16.784l-56.033,3.076c0,0-36.976,14.265-76.837,0
			c0,0-58.503,0.723-63.147-14.964l-46.198-19.581c0,0,11.382-17.483-44.884-37.064L457.828,836.554z"/>
		<path fill="#F7F4DB" d="M470.837,883.932c-4.479,16.423-10.596,32.011-16.553,47.242c0.695,3.756-0.744,5.993-0.744,5.993
			l33.578,14.232c3.674-17.504,8.268-35.007,13.812-52.511C490.405,894.461,480.618,888.124,470.837,883.932z"/>
		<path fill="#F7F4DB" d="M533.163,902.901c-6.231,1.385-12.1,1.324-17.712,0.371c-3.094,19.719-4.586,39.937-8.986,60.244
			c10.646,5.602,31.038,7.385,44.171,7.947c1.897-23.673,4.003-46.479,7.148-70.103
			C549.674,901.386,541.477,901.793,533.163,902.901z"/>
		<path fill="#F7F4DB" d="M573.739,901.76c-2.419,23.852-3.776,47.054-7.642,71.034c29.673,9.541,57.2,3.782,68.364,0.603
			c-3.318-22.577-5.519-46.114-7.449-68.938C609.457,904.575,591.788,902.62,573.739,901.76z"/>
		<path fill="#F7F4DB" d="M671.365,897.482c-2.71-2.71-13.549,5.42-21.679,5.42c-2.521,0.36-5.041,0.625-7.563,0.85
			c1.58,22.197,6.063,45.362,7.258,67.431l45.903-2.519C689.87,944.936,681.911,921.209,671.365,897.482z"/>
	</g>
	<g>
		<path fill="#BA6F43" d="M740.354,807.393l-15.928,7.639c0,0-29.862-43.479-10.311-68.488c0,0-11.456-23.397-24.005-21.487
			s-3.231,89.494,0,97.599c0,0-33.755,29.983,5.176,48.121c0,0,15.154,109.207,138.233,46.889
			c90.212-69.429,11.189-124.53,11.189-124.53s8.416-47.189-38.8-38.489C805.908,754.647,806.832,832.128,740.354,807.393z"/>
		<path fill="#D4895D" d="M844.708,793.136c0,0,4.918-27.718-14.056-36.739c-0.223,27.214-14.964,53.677-37.344,67.919
			c-18.969,10.839-48.777,5.42-56.907,24.389c-13.149,35.064,14.469,71.89,49.88,86.132c13.647-2.663,29.286-8.082,47.237-17.171
			C923.73,848.237,844.708,793.136,844.708,793.136z"/>
	</g>
	<g>
		<ellipse fill="#F0B8AD" cx="486.52" cy="556.417" rx="43.198" ry="19.614"/>
		<ellipse fill="#F0B8AD" cx="716.857" cy="556.417" rx="43.198" ry="19.614"/>
	</g>
	
		<ellipse transform="matrix(0.866 -0.5 0.5 0.866 -329.0713 524.1947)" fill="#D6AC94" cx="813.625" cy="876.153" rx="37.031" ry="28.633"/>
	<g>
		<path fill="#18102D" d="M806.291,873.958c-0.038-0.013-0.078-0.025-0.116-0.038c0.081,0.088,0.233,0.237,0.434,0.425
			c-0.007-0.009-0.012-0.02-0.018-0.029C806.496,874.179,806.386,874.054,806.291,873.958z"/>
		<path fill="#18102D" d="M839.278,864.836c-0.648-1.453-2.584-2.71-4.049-3.113c-1.622-0.447-3.782-0.245-5.221,0.683
			c-1.446,0.933-2.72,2.321-3.113,4.049c-0.081,0.6-0.161,1.201-0.241,1.801c0.002,0.693,0.128,1.352,0.326,1.991
			c0.08,0.198,0.108,0.409,0.168,0.61c-0.03,0.115-0.06,0.23-0.095,0.344c-0.081,0.147-0.165,0.292-0.253,0.435
			c-0.153,0.165-0.312,0.326-0.476,0.48c-0.275,0.17-0.55,0.338-0.84,0.484c-0.534,0.174-1.076,0.319-1.628,0.43
			c-0.938,0.078-1.874,0.102-2.812,0.063c-0.236-0.679-0.492-1.352-0.78-2.013c-0.944-2.172-2.224-4.028-3.694-5.88
			c-0.036-0.046-0.081-0.077-0.118-0.123c0.173-0.409,0.345-0.818,0.518-1.227c0.081-0.6,0.161-1.201,0.241-1.801
			c0.036-0.933-0.159-1.803-0.583-2.61c-0.161-0.574-0.451-1.072-0.871-1.495c-0.301-0.509-0.707-0.914-1.215-1.215
			c-0.423-0.42-0.921-0.71-1.495-0.871c-0.807-0.424-1.678-0.619-2.611-0.583c-3.201,0.117-6.31,0.959-9.094,2.56
			c-1.341,0.772-2.605,1.75-3.728,2.812c-1.143,1.081-2.132,2.376-2.969,3.702c-0.258,0.409-0.447,0.877-0.595,1.366
			c-0.315,0.533-0.584,1.082-0.733,1.622c-0.447,1.622-0.245,3.781,0.683,5.22c0.933,1.446,2.321,2.72,4.049,3.113
			c1.83,0.417,3.542,0.186,5.221-0.683c0.781-0.404,1.538-0.848,2.298-1.288c0.194,0.087,0.402,0.15,0.606,0.221
			c-0.206-0.225-0.078-0.157,0.116,0.038c0.006,0.002,0.012,0.004,0.017,0.006c0.148,0.177,0.284,0.37,0.451,0.522
			c-0.062-0.056-0.099-0.093-0.15-0.142c0.578,0.841,1.066,1.735,1.509,2.651c0.282,0.789,0.506,1.594,0.672,2.415
			c0.036,0.57,0.036,1.142,0.004,1.714c-0.109,0.51-0.248,1.013-0.414,1.509c-0.114,0.225-0.212,0.46-0.343,0.677
			c-0.022,0.036-0.171,0.241-0.311,0.44c-0.127,0.134-0.259,0.262-0.39,0.391c-0.235,0.147-0.481,0.279-0.723,0.411
			c-0.193,0.058-0.392,0.102-0.589,0.149c-0.15,0.005-0.303,0.018-0.453,0.016c-0.163-0.038-0.326-0.087-0.486-0.133
			c-0.294-0.166-0.606-0.302-0.885-0.505c-1.338-0.975-3.692-1.104-5.221-0.683c-1.571,0.433-3.274,1.648-4.048,3.113
			c-0.831,1.572-1.248,3.477-0.683,5.22c0.574,1.773,1.614,2.956,3.113,4.049c3.856,2.809,9.569,3.22,13.938,1.46
			c4.841-1.951,8.288-5.713,10.016-10.589c1.951,0.043,3.884-0.115,5.846-0.464c3.132-0.557,5.928-2.05,8.36-4.052
			c2.214-1.822,3.788-4.535,4.646-7.241c0.435-1.375,0.662-2.901,0.593-4.341C840.653,868.338,840.164,866.825,839.278,864.836z
			 M807.724,883.754c-0.071,0.102-0.134,0.195-0.18,0.269c-0.009,0.006-0.019,0.01-0.028,0.016
			C807.56,883.961,807.64,883.857,807.724,883.754z M807.79,883.687c-0.02,0.021-0.042,0.041-0.062,0.062
			C808.011,883.404,808.362,883.067,807.79,883.687z"/>
	</g>
	<g>
		<g>
			<g>
				<path fill="#EAA1E7" d="M490.155,963.588l87.576,14.706v77.747h-53.308C524.422,1056.04,485.958,1014.484,490.155,963.588z"/>
				<path fill="#EAA1E7" d="M596.941,978.294c0,0-6.085,52.081,15.594,70.164l51.455-4.285l31.296-75.51L596.941,978.294z"/>
			</g>
			<g>
				<path fill="#F0BEF0" d="M577.73,978.294l-67.033-11.256c5.769,30.477,11.49,64.002,29.793,89.003h37.24V978.294z"/>
				<path fill="#F0BEF0" d="M596.941,978.294c0,0-6.085,52.081,15.594,70.164l40.974-3.412
					c5.901-24.432,10.685-49.982,17.039-73.961L596.941,978.294z"/>
			</g>
		</g>
		<g>
			<g>
				<path fill="#E5D4B9" d="M506.465,1025.107c8.339,14.343,17.957,30.934,17.957,30.934h53.308l-0.328-24.64
					C553.312,1032.423,529.154,1028.109,506.465,1025.107z"/>
				<path fill="#E5D4B9" d="M577.402,1014.19v-20.37c-30-0.271-58.7-6.207-87.24-15.526c1.071,9.441,3.397,18.352,6.345,26.502
					C522.301,1013.648,550.206,1016.147,577.402,1014.19z"/>
				<path fill="#E5D4B9" d="M676.141,1010.785l10.318-24.895c-30.09,5.885-60.18,7.57-90.269,7.759
					c0.128,6.67,0.697,14.351,2.14,21.87C624.266,1017.097,650.203,1014.949,676.141,1010.785z"/>
				<path fill="#E5D4B9" d="M599.423,1028.076c2.273,4.801,9.309,17.209,13.113,20.382l51.455-4.285l6.671-19.066
					C648.639,1028.724,622.298,1028.787,599.423,1028.076z"/>
			</g>
			<g>
				<path fill="#F7ECDB" d="M577.402,1031.4c-16.154,0.686-32.328-1.037-48.079-3.146c4.085,9.527,8.597,18.802,13.57,27.786h34.836
					L577.402,1031.4z"/>
				<path fill="#F7ECDB" d="M577.402,1014.19v-20.37c-21.657-0.196-42.632-3.377-63.364-8.618c2.588,8.918,5.455,17.69,8.624,26.292
					C540.666,1014.751,559.187,1015.501,577.402,1014.19z"/>
				<path fill="#F7ECDB" d="M596.19,993.65c0.128,6.67,0.697,14.351,2.14,21.869c20.735,1.261,41.471,0.115,62.206-2.512
					c1.938-7.942,4.098-15.884,5.938-23.827C643.046,992.418,619.618,993.502,596.19,993.65z"/>
				<path fill="#F7ECDB" d="M599.423,1028.076c2.273,4.801,9.308,17.209,13.113,20.382l42.837-3.567
					c0.233-6.037,1.035-12.074,2.161-18.11C638.628,1028.684,617.909,1028.651,599.423,1028.076z"/>
			</g>
		</g>
	</g>
	<g>
		<g>
			<path fill="#E5D4B9" d="M529.323,1056.04l48.079-3.485l8.539,45.98c0,0-47.743,6.389-56.617-4.935V1056.04z"/>
			<path fill="#E5D4B9" d="M612.535,1048.458h53.938l4.867,39.063c0,0-33.083,18.532-52.238,3.671L612.535,1048.458z"/>
		</g>
		<g>
			<path fill="#F7ECDB" d="M573.811,1087.171c2.271-1.135,5.96-3.233,8.892-6.072l-5.301-28.544l-35.001,2.537
				c3.757,11.395,3.814,23.452,12.441,32.079C560.262,1089.881,568.391,1089.881,573.811,1087.171z"/>
			<path fill="#F7ECDB" d="M646.977,1079.041c6.656-8.874,6.047-19.564,5.607-30.583h-40.048l5.408,35.192
				C627.758,1086.232,637.965,1084.448,646.977,1079.041z"/>
		</g>
	</g>
	<g>
		<path fill="#18102D" d="M465.806,482.417c-4.356,1.089-7.005,5.503-5.915,9.859c1.088,4.355,5.496,7.009,9.858,5.916
			c0.228-0.054,22.422-5.322,35.911,16.035c1.545,2.448,4.184,3.79,6.88,3.79c1.485,0,2.985-0.406,4.332-1.257
			c3.797-2.398,4.93-7.419,2.533-11.215C503.646,480.591,477.453,479.501,465.806,482.417z"/>
		<path fill="#F55389" d="M554.784,563.753c-0.098,1.146-2.181,28.272,13.237,45.038c7.279,7.916,17.028,12.124,28.942,12.624
			c0.328,0.04,0.652,0.1,0.991,0.1c0.243,0,0.467-0.026,0.709-0.028c0.228,0.003,0.443,0.028,0.673,0.028
			c0.311,0,0.606-0.058,0.908-0.091c15.152-0.464,26.902-5.447,34.868-14.94c14.438-17.202,10.199-42.397,10.011-43.461
			c-0.683-3.886-4.06-6.719-8.005-6.719h-32.275h-9.686h-32.272C558.658,556.303,555.136,559.541,554.784,563.753z M595.156,572.562
			h9.686h24.749c0.048,6.536-1.019,16.468-6.981,23.525c-5.027,5.95-13.095,9.012-23.946,9.143
			c-8.032-0.13-14.145-2.542-18.636-7.403c-6.608-7.149-8.495-18.039-8.976-25.265H595.156z"/>
		<path fill="#18102D" d="M683.123,516.76c1.35,0.851,2.85,1.257,4.335,1.257c2.697,0,5.335-1.342,6.88-3.79
			c13.29-21.038,34.963-16.258,35.961-16.025c4.335,1.056,8.725-1.585,9.81-5.926c1.09-4.356-1.559-8.77-5.915-9.859
			c-11.639-2.908-37.837-1.827-53.602,23.128C678.196,509.341,679.328,514.361,683.123,516.76z"/>
		<path fill="#1A122E" d="M891.069,463.156c3.025-3.854,73.536-95.918,27.866-228.647C896.944,170.6,855.923,122.541,797.011,91.664
			C745.976,64.915,681.142,50.965,604.29,50.085c-0.282-0.03-0.556-0.085-0.846-0.085c-1.16,0-2.29,0.032-3.444,0.038
			c-1.154-0.006-2.284-0.038-3.444-0.038c-0.29,0-0.564,0.056-0.846,0.085c-76.852,0.88-141.685,14.829-192.723,41.579
			c-58.913,30.877-99.933,78.937-121.922,142.845c-44.359,128.917,20.88,219.462,27.437,228.089
			c-26.193,64.652-45.063,144.001-15.269,187.546c32.026,46.811,70.467,51.267,83.944,51.267c1.05,0,1.892-0.03,2.624-0.066
			c7.631,6.89,18.027,12.653,32,15.147c5.811,1.037,11.194,1.49,16.164,1.49c6.548,0,12.337-0.808,17.47-2.066l-22.117,31.529
			c-8.159-0.455-15.432,1.603-21.65,6.234c-14.83,11.046-17.397,32.719-17.498,33.638c-0.217,1.948,0.278,3.911,1.395,5.526
			c0.669,0.967,1.362,1.875,2.046,2.803c-9.422,2.728-17.539,10.277-21.904,18.783c-6.695,13.041-4.131,26.236,6.529,33.616
			c9.045,6.261,18.186,9.41,27.27,9.41c2.757,0,5.515-0.291,8.259-0.873c16.562-3.513,27.27-16.798,30.749-21.727
			c1.089,0.434,2.147,0.841,3.145,1.205l-43.326,57.767c-1.463,1.953-1.974,4.462-1.387,6.833c0.587,2.371,2.212,4.353,4.419,5.396
			l44.636,21.079l-2.721,8.163c-0.712,2.13-0.508,4.462,0.561,6.439s2.908,3.422,5.081,3.993l29.167,7.673
			c1.518,9.027,13.508,75.355,44.597,118.515l-4.816,22.277c-0.847,3.917,1.289,7.868,5.028,9.305
			c0.073,0.028,0.236,0.089,0.451,0.168c-3.494,5.767-6.957,13.911-5.26,21.881c0.924,4.335,3.758,10.3,12.014,14.11
			c8.103,3.742,21.25,4.888,34.331,4.888c18.807,0,37.472-2.371,40.78-2.813c1.291-0.172,2.522-0.651,3.588-1.397
			c0.366-0.257,1.279-0.956,2.321-2.138c0.496,0.466,0.952,0.956,1.508,1.386c7.37,5.695,20.583,10.416,33.984,10.416
			c3.803-0.003,7.621-0.381,11.324-1.228c12.02-2.747,21.261-9.974,26.725-20.901c0.114-0.228,0.217-0.463,0.31-0.701
			c6.472-16.714-0.848-36.796-3.207-42.484c0.216-2.275-0.503-4.614-2.085-6.365c-0.304-0.339-7.476-8.46-6.251-23.169
			c1.384-16.627,5.541-34.535,44.511-99.833c0.237-0.397,0.412-0.812,0.574-1.228l35.63-11.178c1.217-0.382,2.259-1.045,3.127-1.867
			c2.814,0.258,5.726,0.404,8.757,0.404c64.052,0,101.029-23.666,119.897-76.736c13.822-38.864-12.573-64.068-32.812-74.489
			c1.625-8.95,2.533-24.198-6.722-34.889c-7.624-8.81-19.943-12.023-36.521-9.686c-1.197-3.372-2.726-6.666-4.587-9.828
			c-4.711-8.006-11.029-14.444-18.494-19.109c0.47-0.077,0.926-0.135,1.401-0.22c13.973-2.494,24.369-8.258,32-15.147
			c0.732,0.036,1.574,0.066,2.625,0.066c13.478,0,51.918-4.462,83.944-51.267c31.341-45.807,7.675-128.105-16.197-186.486
			C890.733,463.485,890.92,463.347,891.069,463.156z M296.441,239.799C335.781,125.462,437.926,67.118,600,66.298
			c162.072,0.821,264.217,59.164,303.56,173.501c35.798,104.036-5.725,182.956-20.481,206.261
			c-10.128-22.884-19.196-40.038-22.723-46.525c0.22-1.074,0.236-2.207-0.011-3.347c-21.695-100.202-90.56-147.971-144.511-170.399
			c-46.383-19.281-89.019-23.532-105.349-24.47c-0.634-0.159-1.287-0.268-1.97-0.268c-0.391,0-1.53,0.004-3.292,0.035
			c-0.932-0.026-1.53-0.033-1.723-0.035c-0.019,0-0.037,0-0.056,0c-0.319,0-0.621,0.058-0.93,0.093
			c-24.174,0.619-113.714,5.366-160.486,41.472c-11.554-10.918-20.538-17.168-21.403-17.761c-3.385-2.323-7.979-1.753-10.691,1.326
			c-17.516,19.85-25.785,51.343-28.668,64.814c-5.82,1.006-13.266,4.488-19.651,14.522c0,0,0,0,0,0.001
			c-5.449,8.562-7.548,17.414-7.223,25.577l-43.483,17.393c-2.202,0.881-3.911,2.682-4.676,4.927
			c-0.765,2.245-0.511,4.714,0.696,6.757c10.226,17.305,20.816,30.493,30.869,40.574c-0.071,0.115-0.161,0.211-0.227,0.331
			c-6.897,12.563-14.311,27.429-21.491,43.635C300.66,419.833,261.303,341.916,296.441,239.799z M457.82,334.923l22.745,14.475
			l-29.941,33.933l-33.793-33.792l40.793-14.77C457.693,334.816,457.748,334.877,457.82,334.923z M782.834,421.462
			c0.001,0.194,0.003,0.322,0.003,0.339c0,0.103,0.003,0.208,0.008,0.311c0.06,1.443,4.008,106.439-19.193,189.034
			c-0.369,0.284-0.729,0.585-1.055,0.939c-54.186,59.034-160.667,56.142-161.744,56.113c-0.334-0.013-0.655,0.034-0.981,0.062
			c-0.256-0.019-0.503-0.066-0.765-0.062c-1.066,0.045-104.872,3.358-161.818-56.232c-0.285-0.299-0.604-0.542-0.92-0.787
			c-23.2-82.593-19.273-187.625-19.213-189.069c0.019-0.444-0.026-0.874-0.076-1.302l4.32-2.11l131.865-2.783
			c4.221-0.09,7.672-3.397,7.942-7.611c0.026-0.421,1.792-27.755,4.882-57.367l12.618,59.924c0.778,3.698,4.004,6.372,7.783,6.453
			L782.834,421.462z M699.872,780.027c1.883,6.801,5.655,12.849,11.154,18.139c-0.064,0.588-0.079,1.189-0.01,1.801
			c0.599,5.293,1.94,10.881,3.1,15.065c-5.498-1.479-13.081-2.65-20.805-1.127c-2.061-10.79-6.522-42.085,1.008-82.565
			c0.756,0.332,1.473,0.635,2.097,0.884c2.284,4.029,5.332,9.061,8.97,14.294c-0.286,0.328-0.567,0.663-0.804,1.044
			C704.196,748.183,695.161,763.021,699.872,780.027z M642.108,963.9l-8.791-75.393c3.784,0.34,7.365,0.511,10.704,0.511
			c6.182,0,11.566-0.542,16.282-1.366l26.88,74.153c-10.159,1.074-26.556,2.355-41.659,1.511
			C644.317,963.259,643.165,963.482,642.108,963.9z M626.402,969.573l-27.759,2.139l-25.048-2.089l9.745-83.581
			c5.381-1.145,10.93-2.576,16.662-4.337c5.888,1.797,11.437,3.212,16.655,4.293L626.402,969.573z M663.99,1084.18
			c-3.337,4.626-7.407,7.531-12.34,8.833c-10.337,2.718-22.033-2.022-27.924-4.98l0.434-23.439c0.029-1.479-0.357-2.953-1.098-4.234
			c-0.011-0.02-0.376-0.657-1.192-2.191c3.483,0.339,7.386,0.574,11.6,0.574c7.26,0,15.398-0.704,23.68-2.704
			C656.588,1069.086,660.682,1078.71,663.99,1084.18z M550.351,889.696c5.212,0,10.656-0.315,16.304-0.937l-8.698,74.597
			c-0.257-0.012-0.508-0.052-0.77-0.039c-16.042,0.889-34.736-0.603-45.506-1.71l17.193-73.67
			C535.589,889.046,542.726,889.696,550.351,889.696z M546.533,979.851c3.468,0,6.93-0.086,10.327-0.252
			c0.31,0.926,0.764,1.805,1.396,2.576c1.395,1.707,3.419,2.771,5.616,2.953l6.841,0.57c-1.681,23.342-1.166,43.215,0.348,59.412
			c-19.248,5.066-37.73,3.158-44.74,2.102c-13.027-23.443-21.57-50.942-26.582-70.731c0.286,0.071,0.562,0.17,0.857,0.21
			C501.693,976.84,524.06,979.851,546.533,979.851z M535.341,1090.346l4.02-18.59c0.503-2.323-0.04-4.753-1.479-6.645
			c-0.124-0.164-0.243-0.337-0.367-0.502c1.968,0.089,4.048,0.145,6.247,0.145c8.562,0,18.735-0.807,29.301-3.361
			c2.004,13.129,4.49,22.83,6.332,28.855C563.392,1096.227,544.95,1092.887,535.341,1090.346z M596.483,1090.105
			c-2.513-7.004-13.891-42.723-9.576-103.057l2.1,0.175c-2.273,11.853-1.822,33.688,4.482,50.305
			c6.756,17.81,12.52,25.482,14.375,28.932l-0.484,26.154c-0.019,1.029,0.216,2.01,0.562,2.947c-0.228,0.4-0.443,0.811-0.605,1.258
			c-0.224,0.617-0.777,2.234-1.391,4.479C603.321,1097.699,600.164,1093.965,596.483,1090.105z M500.662,669.118
			c16.031,5.492,31.775,9.057,45.844,11.345c0.282,1.687,1.066,3.302,2.406,4.566c0.834,0.789,16.177,15.153,34.151,24.579
			c-11.156,4.572-28.657,9.038-51.339,6.203C502.847,712.2,500.378,682.027,500.662,669.118z M594.487,684.526
			c2.916,0,4.74-0.061,5.25-0.079c0.094-0.004,0.181-0.032,0.274-0.038c0.096,0.007,0.185,0.035,0.282,0.038
			c0.487,0.019,2.128,0.066,4.745,0.066c4.679,0,12.505-0.165,22.397-0.937c-7.977,5.989-18.104,12.513-27.464,15.801
			c-9.672-3.378-19.736-10.015-27.352-15.77C582.161,684.356,589.772,684.526,594.487,684.526z M669.285,834.946
			c-4.766,12.39-2.255,21.372,0.691,26.725c0.939,1.706,2.059,3.209,3.244,4.617c-5.183,3.154-24.606,12.179-64.076,1.17
			l-0.018-88.332l18.625-0.976c4.221-0.222,7.569-3.641,7.698-7.865c0.524-16.745-3.043-29.973-8.024-40.187
			c6.066,1.366,12.729,2.27,19.898,2.27c9.371,0,19.564-1.506,30.237-5.401c0.41-0.15,0.784-0.352,1.154-0.558
			c-10.034,51.737-1.809,89.349-0.437,94.996C674.456,824.913,671.397,829.457,669.285,834.946z M668.222,707.718
			c0.662,1.574,1.453,3.051,2.318,4.463c-22.016,7.531-41.442,2.774-53.773-2.487c18.047-9.424,33.485-23.875,34.322-24.666
			c1.332-1.258,2.117-2.863,2.403-4.54c5.438-0.866,11.121-1.922,16.97-3.193C665.038,688.075,664.267,698.31,668.222,707.718z
			 M599.996,720.086c6.998,6.256,17.767,19.458,19.107,42.236l-18.866,0.987c-0.082,0.004-0.157,0.03-0.238,0.037
			c-0.081-0.007-0.156-0.032-0.238-0.037l-18.863-0.987C582.238,739.534,593.015,726.331,599.996,720.086z M709.184,721.733
			c-1.008-1.847-2.715-3.239-4.724-3.869c-4.607-1.45-17.41-7.235-21.269-16.489c-2.069-4.967-1.432-10.569,1.953-17.127
			c3.464-6.711,6.428-7.386,7.87-7.386c0.22,0,0.402,0.016,0.548,0.029c10.358,0.884,25.857,23.047,30.105,36.496
			c0.659,2.093,2.146,3.835,4.11,4.819c7.021,3.528,27.662,16.312,30.332,28.374c0.468,2.122,0.707,5.433-2.646,9.664
			c-3.988,5.036-7.198,5.391-9.265,5.213C736.574,760.637,721.699,744.672,709.184,721.733z M727.193,685.091
			c-5.117-7.437-11.419-14.513-18.387-19.13c15.244-5.865,30.406-13.557,44.214-23.676
			C746.098,658.989,737.603,673.723,727.193,685.091z M325.937,359.989l32.512-13.004c2.501,4.925,6.005,9.096,10.208,12.082
			c4.512,3.203,10.038,5.156,15.862,5.156c3.366,0,6.83-0.7,10.259-2.14c0.261,14.462-0.779,36.519-8.031,52.764
			C375.826,410.739,350.458,397.716,325.937,359.989z M385.9,306.91c4.61,0.355,9.728,4.938,12.446,11.146
			c1.672,3.82,4.761,13.723-2.683,23.153c-5.494,6.959-11.914,8.638-17.593,4.601c-6.526-4.635-11.691-17.492-2.736-31.564v0.001
			C377.588,310.701,381.282,306.547,385.9,306.91z M411.079,366.779l26.113,26.113l-30.97,15.125
			C409.984,393.867,411.022,378.673,411.079,366.779z M416.387,332.407c0.865-6.878-0.155-14.042-3.148-20.873
			c-3.485-7.96-9.263-14.253-15.916-17.778c2.415-10.987,8.558-34.21,20.177-50.895c12.358,9.858,40.494,34.951,55.075,69.203
			L416.387,332.407z M414.661,700.489c-32.5-5.803-36.57-32.486-36.721-33.566c-0.556-4.456-4.626-7.611-9.074-7.058
			c-4.454,0.556-7.616,4.618-7.058,9.074c0.515,4.124,2.05,9.517,4.889,15.203c-14.575-2.656-38.68-11.952-60.047-43.18
			c-30.952-45.238,0.637-149.724,43.539-229.03c21.484,17.308,38.168,20.457,39.28,20.649c0.039,0.007,0.078,0.004,0.117,0.01
			c0.419,0.066,0.842,0.109,1.27,0.109c0.649,0,1.301-0.094,1.946-0.254c0.223-0.055,0.428-0.154,0.645-0.228
			c0.325-0.11,0.654-0.189,0.971-0.343l6.274-3.064c-0.808,36.609-0.782,195.308,57.135,263.889
			C451.138,697.707,437.324,704.54,414.661,700.489z M446.741,641.678c11.519,8.407,23.84,15.171,36.312,20.614l-13.435,19.152
			C460.528,670.499,452.99,656.89,446.741,641.678z M485.704,686.826c3.694,20.215,15.447,41.547,44.003,45.117
			c16.816,2.107,31.249,0.703,42.953-2.026c-5.027,10.238-8.636,23.527-8.111,40.369c0.132,4.224,3.48,7.643,7.701,7.865
			l20.618,1.081l0.017,87.619c-76.984,22.593-115.749-18.613-127.057-33.947c32.259-31.407,38.43-78.998,38.689-81.115
			c0.545-4.456-2.625-8.511-7.082-9.056c-4.441-0.548-8.511,2.622-9.056,7.082c-0.036,0.28-2.167,16.67-10.264,35.642
			c-3.725-1.444-16.682-7.618-40.286-30.381L485.704,686.826z M404.297,840.697c-7.198,1.508-14.872-0.527-22.803-6.02
			c-5.076-3.512-3.006-9.54-1.321-12.821c3.525-6.87,11.35-12.861,17.91-10.514c1.276,0.456,2.585,0.536,3.841,0.361
			c7.284,6.77,14.744,11.975,21.671,15.936C420.251,831.782,413.421,838.801,404.297,840.697z M400.841,786.246
			c1.029-4.83,3.85-14.544,10.54-19.527c3.314-2.469,7.268-3.451,12.039-2.995c24.604,24.279,39.826,33.131,47.377,36.336
			c-4.669,7.984-10.504,15.829-17.796,22.597C443.826,820.04,419.249,811.057,400.841,786.246z M417.323,895.608l37.754-50.336
			c3.299,4.045,7.804,8.971,13.574,14.069c-0.059,0.147-0.142,0.278-0.193,0.43l-17.275,51.827L417.323,895.608z M482.262,869.765
			c8.542,5.637,18.772,10.812,30.774,14.482l-13.529,57.976l-38.058-10.011L482.262,869.765z M599.388,1126.077
			c-19.861,2.342-51.503,3.877-62.469-1.18c-2.591-1.196-2.832-2.308-2.922-2.728c-0.735-3.407,2.802-9.921,6.06-14.099
			c1.804,0.331,3.704,0.637,5.698,0.9c0.317,2.61,1.45,5.594,3.934,7.989c2.805,2.702,6.571,4.062,11.226,4.062
			c1.199,0,2.458-0.09,3.774-0.273c8.728-1.199,12.925-5.324,14.909-8.577c1.153-1.889,1.745-3.777,2.053-5.553
			c1.994-0.617,3.973-1.349,5.934-2.182C598.069,1116.234,599.701,1123.198,599.388,1126.077z M669.947,1120.951
			c-3.316,6.409-8.431,10.326-15.624,11.969c-11.951,2.731-26.111-1.85-31.748-6.203c-4.222-3.264-2.809-14.519-0.782-21.715
			c1.086,0.446,2.254,0.885,3.459,1.315c0.354,2.797,1.409,6.541,4.394,9.659c2.112,2.207,5.872,4.761,11.946,4.761
			c0.318,0,0.64-0.005,0.971-0.021c6.764-0.294,10.638-3.311,12.697-5.793c1.934-2.329,2.857-4.855,3.303-7.077
			c4.216-1.461,8.065-3.59,11.493-6.445C671.453,1107.654,672.101,1115.039,669.947,1120.951z M659.608,1038.379
			c-19.112,6.643-39.552,3.494-46.676,2.031c-1.419-2.911-2.994-6.166-4.777-9.894c-7.344-15.357-4.573-34.146-2.586-43.029
			l30.51-2.353c2.204-0.169,4.245-1.231,5.65-2.937c0.701-0.851,1.213-1.826,1.52-2.862c0.445,0.102,0.898,0.189,1.37,0.215
			c3.787,0.212,7.616,0.302,11.408,0.302c11.107,0,21.832-0.773,29.861-1.558C670.008,1006.954,662.898,1024.155,659.608,1038.379z
			 M697.853,943.535l-21.91-60.443c6.123-2.678,9.183-5.318,9.53-5.632c0.441-0.399,0.821-0.841,1.156-1.307
			c1.36,0.62,2.675,1.168,3.851,1.59c3.057,17.863,14.156,43.053,39.412,55.741L697.853,943.535z M834.089,765.956
			c6.094,7.005,3.382,21.467,1.826,26.429c-1.305,4.094,0.799,8.497,4.806,10.051c1.799,0.699,43.871,17.524,29.896,56.833
			c-16.431,46.208-47.705,65.923-104.58,65.923c-54.522,0-59.884-52.247-60.082-54.446c-0.304-3.578-2.956-6.542-6.47-7.28
			c-3.146-0.659-12.022-3.684-15.288-9.68c-1.866-3.432-1.781-7.685,0.265-13.001c1.966-5.107,4.869-8.386,8.881-10.022
			c7.78-3.17,18.577,0.288,22.055,1.882c2.697,1.257,5.896,0.932,8.294-0.849c0.079-0.058,8.135-5.96,25.72-13.774
			c0.055-0.024,0.099-0.062,0.154-0.087c5.243,1.363,10.167,2.091,14.777,2.091c17.606,0,30.909-10.027,42.368-30.658
			c4.705-8.47,6.781-18.109,6.308-27.779C820.632,760.614,829.621,760.826,834.089,765.956z M792.496,781.469
			c-12.599,22.676-24.709,30.324-59.458,12.451c-9.572-4.922-15.444-11.009-17.461-18.093c-1.675-5.894-0.436-11.597,0.893-15.348
			c8.294,8.988,18.064,16.302,28.346,17.179c0.669,0.056,1.371,0.09,2.104,0.09c6.018,0,14.015-2.22,21.292-11.411
			c5.589-7.063,7.584-15.119,5.766-23.298c-1.473-6.623-5.35-12.684-10.102-17.982c11.664,2.137,21.397,8.804,27.401,19.011
			C798.257,755.927,798.723,770.259,792.496,781.469z M893.35,640.962c-21.464,31.37-45.513,40.639-60.078,43.246
			c2.861-5.711,4.404-11.129,4.921-15.269c0.558-4.456-2.604-8.519-7.058-9.074c-4.438-0.556-8.521,2.601-9.074,7.058
			c-0.034,0.278-3.832,27.694-36.721,33.566c-22.7,4.049-36.506-2.797-43.172-7.785c63.904-75.667,57.335-261.066,56.928-271.118
			c-0.018-2.888-0.365-35.433-7.299-65.951c-0.995-4.38-5.364-7.112-9.731-6.126c-4.377,0.995-7.121,5.35-6.126,9.728
			c3.713,16.343,5.428,33.677,6.219,45.948l-67.137-1.418c-1.034-62.404-24.595-127.449-25.622-130.247
			c-1.54-4.216-6.208-6.378-10.429-4.836c-4.216,1.544-6.38,6.215-4.835,10.431c0.24,0.657,23.468,64.75,24.621,124.309
			l-105.47-2.228l-21.052-99.98c-0.794-3.766-4.115-6.454-7.952-6.454c-0.042,0-0.085,0-0.127,0.001
			c-3.893,0.06-7.195,2.869-7.878,6.699c-5.676,31.797-9.471,79.927-10.789,98.356l-89.625,1.891
			c0.014-0.01,0.025-0.024,0.038-0.035c0.353-0.267,0.664-0.573,0.963-0.888c0.071-0.075,0.157-0.131,0.226-0.208l0.023-0.026
			c0.006-0.007,0.012-0.014,0.018-0.021l41.917-47.506c1.572-1.782,2.286-4.164,1.953-6.518c-0.333-2.353-1.68-4.443-3.686-5.719
			l-20.422-12.996l9.038-3.272c4.192-1.518,6.38-6.132,4.901-10.339c-8.572-24.396-23.435-44.764-37.293-59.876
			c44.483-32.843,133.457-36.533,151.671-36.942c9.54,0.346,55.595,3.054,104.87,23.646
			c72.978,30.498,118.188,83.866,134.375,158.621c0.06,0.28,0.161,0.538,0.249,0.804c-0.442,1.886-0.245,3.929,0.76,5.76
			C890.175,487.625,924.231,595.827,893.35,640.962z"/>
		<path fill="#18102D" d="M758.378,864.376c-4.634,0-8.392,3.757-8.392,8.392s3.757,8.392,8.392,8.392
			c4.635,0,8.392-3.757,8.392-8.392S763.013,864.376,758.378,864.376z"/>
		<circle fill="#F7F4DB" cx="631.155" cy="828.424" r="15.735"/>
		<path fill="#18102D" d="M817.931,830.914c0,4.635,3.757,8.392,8.392,8.392c4.635,0,8.392-3.757,8.392-8.392
			c0-4.635-3.757-8.392-8.392-8.392C821.688,822.522,817.931,826.279,817.931,830.914z"/>
	</g>
</g>
</svg>
