<?xml version="1.0" encoding="utf-8"?>
<!-- Generator: Adobe Illustrator 23.0.6, SVG Export Plug-In . SVG Version: 6.00 Build 0)  -->
<svg version="1.1" id="Layer_1" xmlns="http://www.w3.org/2000/svg" xmlns:xlink="http://www.w3.org/1999/xlink" x="0px" y="0px"
	 viewBox="0 0 1200 1200" enable-background="new 0 0 1200 1200" xml:space="preserve">
<g>
	<g>
		<path fill="#312A2A" d="M606.709,58.555C759.7,47.705,1002.969,177.3,827.37,658.552c0,0-33.992,19.785-74.377,11.489
			l6.852-23.244c0,0-22.349-3.38-31.682-26.363l39.695-30.328c0,0,22.21-24.498,22.368-224.791l-380.465-0.712
			c0,0,1.813,149.578,22.381,225.503l44.172,30.328l-36.165,21.608l6.856,30.031c0,0-59.556,7.173-77.644-20.698
			C369.361,651.375,138.801,91.739,606.709,58.555z"/>
		<path fill="#473F3F" d="M733.512,81.43c-42.485-19.21-87.607-25.654-126.803-22.875c-48.259,3.423-89.071,12.457-123.489,25.888
			c-66.934,38.715-118.066,98.42-135.377,181.512c-28.249,141.246-2.315,277.562,54.158,404.241
			c21.828,4.666,45.004,1.876,45.004,1.876l-5.026-31.124c-4.311-15.854-9.837-50.843-9.837-50.843
			c-20.568-75.926-21.077-225.496-21.077-225.496c5.657-72.509,34.401-136.935,81.439-179.021
			c-26.595,55.407-29.349,118.146-26.475,179.119l270.679,0.507c-1.216-62.451-8.195-123.719-24.532-184.984
			c36.102,54.153,79.627,118.237,75.667,185.079l2.383,0.004c-0.152,193.046-37.233,304.727-37.233,304.727
			c17.747,3.646,34.256,1.867,47.192-1.271C860.008,482.594,889.653,209.272,733.512,81.43z"/>
	</g>
	<g>
		<g>
			<path fill="#F1CDA7" d="M417.128,365.419l370.715-0.11c0,0-1.488,165.679-19.984,224.796c0,0-38.937,39.289-100.878,45.094
				l-29.036,43.667h-71.553L542.868,635.2c0,0-71.794-8.886-110.725-45.094C432.143,590.105,400.972,428.358,417.128,365.419z"/>
			<path fill="#F1CDA7" d="M456.988,763.551l-47.226-8.476c0,0-5.661,48.221,28.041,68.961l23.924-18.148
				C461.727,805.888,448.84,792.407,456.988,763.551z"/>
			<path fill="#F1CDA7" d="M742.163,759.741c0,0,32.769,1.383,45.68-7.605c0,0,7.207,60.492-24.94,71.899l-20.74-21.777
				C742.163,802.259,747.688,786.543,742.163,759.741z"/>
			<path fill="#F1CDA7" d="M520.072,1014.326c0,0,98.515,14.172,150.711,0l-17.063,33.493l-44.121-5.473
				c0,0-49.555,18.571-72.134,5.473c-17.908-21.049-17.394-31.764-17.394-31.764"/>
		</g>
		<g>
			<path fill="#F7E3C9" d="M674.672,608.858c81.311-52.852,87.035-151.976,73.364-243.536l-299.244,0.089
				c1.494,53.302-1.112,107.749,14.245,160.401C492.505,622.252,591.625,659.757,674.672,608.858z"/>
		</g>
	</g>
	<g>
		<path fill="#E5E0B9" d="M436.766,671.769c0,0,188.496,21.431,323.08-2.765c0,0,39.149,38.126,37.797,71.899
			c0,0-15.555,22.484-55.48,22.649l1.533,31.825c0,0-39.385,58.905-148.27,49.918s-144.489-49.918-144.489-49.918l6.049-31.825
			c0,0-47.875-7.04-54.097-23.34C402.891,740.211,411.878,692.509,436.766,671.769z"/>
		<path fill="#F7F4DB" d="M495.184,750.841c-9.645,0-23.627,30.383-30.232,55.99c18.926,12.813,58.837,32.551,130.475,38.464
			c67.492,5.571,108.26-14.939,129.52-31.341c-1.007-25.23-7.944-50.067-18.127-73.828
			C639.846,766.914,564.836,761.556,495.184,750.841z"/>
		<path fill="#F7F4DB" d="M449.642,705.299c-16.241-13.921-34.477,20.377-35.595,45.478c9.4,5.154,22.46,8.645,31.704,10.657
			C453.014,739.691,465.81,719.445,449.642,705.299z"/>
		<path fill="#F7F4DB" d="M757.718,697.262c-8.037-2.679-16.074,5.358-16.074,8.037c-4.647,20.91,8.823,37.795,10.738,57.635
			c15.498-1.678,26.534-6.764,33.812-11.665C783.798,730.211,776.397,709.715,757.718,697.262z"/>
	</g>
	<path fill="#F7F4DB" d="M599.662,729.409c24.615,1.893,30.496-24.315,38.449-49.307c-26.109,0.67-51.737,0.484-75.506-0.172
		C574.775,699.826,575.909,729.409,599.662,729.409z"/>
	<g>
		<path fill="#A1201D" d="M576.243,735.285c0,0,24.37-26.531,51.332,0c0,0,62.739,0.713,79.849,79.471c0,0-65,18.267-107.424-26.67
			c0,0-33.609,44.542-108.273,26.765C491.727,814.851,505.208,740.383,576.243,735.285z"/>
		<path fill="#BE2C2C" d="M623.772,772.272c7.843-11.764,7.051-26.392,0.824-39.695c-17.607-14.957-33.734-8.207-42.177-2.427
			c-5.473,14.42-7.221,30.588,3.848,39.443C596.983,777.63,613.056,785.667,623.772,772.272z"/>
		<path fill="#BE2C2C" d="M554.017,739.601c-51.694,16.935-62.29,75.25-62.29,75.25c49.092,11.689,80.432-3.563,96.142-15.383
			C565.531,789.901,548.221,763.919,554.017,739.601z"/>
		<path fill="#BE2C2C" d="M707.424,814.756c-10.621-48.885-38.812-67.691-58.677-74.933c1.541,24.241-12.783,48.954-36.356,59.252
			C653.984,829.772,707.424,814.756,707.424,814.756z"/>
	</g>
	<g>
		<g>
			<path fill="#153773" d="M591.279,726.557L537.466,635.2l-61.151-18.073c0,0-23.16,25.366-33.845,27.508
				c0,0-10.37,23.208,45.628,60.084S591.279,726.557,591.279,726.557z"/>
			<path fill="#153773" d="M612.243,723.494L666.98,635.2l57.965-16.259c0,0,13.069,14.981,32.254,27.856
				c0,0,7.94,35.17-53.843,61.095S612.243,723.494,612.243,723.494z"/>
			<path fill="#153773" d="M457.454,805.37c0,0,138.109,94.886,283.222,0c0,0,84.966,79.331,85.485,148.81
				c0,0-73.878,64.497-219.451,64.497s-233.2-65.534-233.2-65.534S384.811,874.33,457.454,805.37z"/>
		</g>
		<g>
			<path fill="#224B92" d="M553.374,662.207c-23.945,0.569-45.589,15.301-68.906,21.66c-7.035,1.759-13.779,2.353-20.427,2.466
				c6.204,5.659,14.056,11.799,24.057,18.385c55.998,36.876,103.182,21.839,103.182,21.839L553.374,662.207z"/>
			<path fill="#224B92" d="M690.745,667.794c-8.894-8.894-23.322-14.068-37.161-10.985l-41.341,66.685
				c0,0,29.33,10.323,91.113-15.602c9.963-4.181,18.09-8.602,24.753-13.077C715.508,687.477,703.923,678.044,690.745,667.794z"/>
			<path fill="#224B92" d="M449.642,836.566c-36.277,33.858-50.719,80.814-63.04,125.104c7.782,4.685,18.947,10.862,33.247,17.434
				c12.34-46.656,31.303-91.919,48.545-137.18C463.037,839.245,455,833.887,449.642,836.566z"/>
			<path fill="#224B92" d="M524.652,860.676c-14.777-7.093-29.468-16.074-34.826-8.037c-29.299,39.065-36.349,89.253-51.564,134.346
				c18.259,7.312,40.135,14.525,65.284,20.235C513.209,959.061,530.841,912.251,524.652,860.676z"/>
			<path fill="#224B92" d="M559.478,871.392c-31.584,34.014-25.712,90.061-34.336,140.167c24.613,4.355,51.849,7.117,81.567,7.117
				c25.622,0,48.974-2.027,70.143-5.319c-8.795-50.358-14.455-102.095-42.364-141.965
				C626.451,855.318,572.872,860.676,559.478,871.392z"/>
			<path fill="#224B92" d="M680.029,866.034c-5.054,48.018-2.94,98.415,13.057,144.453c26.313-5.166,48.756-12.243,67.299-19.646
				c-18.249-45.145-20.522-96.479-50.888-135.523C706.819,849.961,682.708,857.997,680.029,866.034z"/>
			<path fill="#224B92" d="M747.003,833.887c-2.679-5.358-13.395,8.037-13.395,10.716c2.551,48.463,31.804,92.07,46.161,137.756
				c15.499-7.375,27.135-14.438,34.867-19.659C799.707,916.303,776.74,874.244,747.003,833.887z"/>
		</g>
	</g>
	<path fill="#312A2A" d="M537.466,1047.818c0,0,59.266,5.396,69.243-4.456c9.977-9.852,33.309,9.677,44.716,9.133l-27.481,52.568
		c0,0-43.036,8.84-55.48-9.32S537.466,1047.818,537.466,1047.818z"/>
	<path fill="#F7F4DB" d="M570.51,1098.208c0,0-21.638,46.262,23.935,45.743c45.573-0.518,21.32-37.636,21.32-37.636
		S595.37,1109.5,570.51,1098.208z"/>
	<g>
		<path fill="#E5E0B9" d="M578.034,722.418c-32.678-16.174-61.696-38.924-85.289-66.723c-6.693-7.886-12.858-16.177-18.567-24.801
			c-4.738-7.156-16.343-0.455-11.566,6.761c21.191,32.005,48.748,59.531,80.909,80.51c8.928,5.824,18.201,11.091,27.753,15.819
			C578.973,737.795,585.767,726.246,578.034,722.418z"/>
		<path fill="#E5E0B9" d="M729.606,633.574c-19.988,30.19-46.184,56.275-76.557,76.001c-8.788,5.707-17.909,10.875-27.299,15.523
			c-7.726,3.824-0.948,15.381,6.76,11.566c34.063-16.859,64.634-40.943,89.053-70.067c7.022-8.376,13.575-17.149,19.609-26.262
			C745.944,633.126,734.349,626.41,729.606,633.574z"/>
	</g>
	<g>
		<ellipse fill="#F1BDA7" cx="491.574" cy="514.986" rx="36.533" ry="21.885"/>
		<ellipse fill="#F1BDA7" cx="711.246" cy="514.986" rx="36.533" ry="21.885"/>
	</g>
	<g>
		<g>
			<path fill="#1A122E" d="M836.563,656.945c4.285-10.739,104.19-264.752,40.027-415.398
				C810.172,85.609,719.317,51.294,603.594,50.041c-0.136-0.007-0.265-0.041-0.403-0.041c-1.067,0-2.128,0.009-3.19,0.014
				c-1.063-0.005-2.123-0.014-3.19-0.014c-0.138,0-0.267,0.034-0.403,0.041c-115.723,1.254-206.579,35.569-272.996,191.506
				c-64.166,150.646,35.742,404.659,40.027,415.398c0.56,1.41,1.509,2.629,2.736,3.521c16.856,12.261,37.229,16.727,53.264,18.158
				c-23.259,30.626-26.016,60.43-26.127,61.783c-0.167,1.988,0.413,3.966,1.625,5.549c2.621,3.427,5.583,6.312,8.731,8.8
				c-0.991,12.68-1.755,51.651,23.13,71.961c-56.322,65.669-62.261,121.119-62.511,123.763c-0.136,1.426,0.112,2.862,0.717,4.16
				c10.312,22.1,58.191,36.883,68.654,39.881c19.03,14.287,50.9,20.17,72.383,22.569l54.69,79.737
				c-4.034,7.872-10.14,23.611-3.035,36.673c5.957,10.949,19.174,16.5,39.289,16.5c21.018,0,33.316-5.02,37.594-15.351
				c2.014-4.863,1.739-9.924,0.336-14.676c0.808-1.373,1.23-2.989,1.103-4.691c-0.01-0.149-0.971-15.1,10.854-36.388
				c3.524-6.344,6.546-11.276,9.465-16.045c7.419-12.115,13.389-21.863,21.026-44.357c16.471-0.912,63.931-5.136,89.007-23.977
				c10.514-3.014,58.327-17.792,68.631-39.875c0.604-1.298,0.853-2.734,0.717-4.16c-0.25-2.644-6.189-58.095-62.512-123.764
				c24.883-20.312,24.12-59.277,23.129-71.958c3.147-2.488,6.11-5.374,8.73-8.802c1.211-1.585,1.792-3.563,1.625-5.549
				c-0.111-1.352-2.869-31.157-26.123-61.783c16.035-1.432,36.407-5.899,53.263-18.156
				C835.054,659.577,836.003,658.355,836.563,656.945z M418.586,373.026h362.838c1.465,15.391,1.9,31.473,0.936,48.189
				c-3.653,63.317-11.149,119.342-18.333,161.995c-43.049,37.912-114.751,51.664-164.027,51.99
				c-49.278-0.326-120.982-14.078-164.03-51.993c-7.181-42.637-14.673-98.648-18.327-161.991
				C416.677,404.505,417.114,388.422,418.586,373.026z M651.315,1039.464c-22.852-0.53-32.539-8.341-35.549-11.528
				c18.503-1.005,33.145-3.436,43.143-5.611C656.267,1029.266,653.81,1034.668,651.315,1039.464z M601.356,1012.309
				c-30.175-0.306-53.239-4.921-63.891-7.523c3.325-23.613,14.555-101.587,24.82-152.333c11.304,1.091,23.68,1.71,37.23,1.737
				c0.021,0,0.04,0.006,0.06,0.006c0.144,0,0.282-0.003,0.425-0.003c0.143,0,0.281,0.003,0.425,0.003c0.02,0,0.039-0.006,0.06-0.006
				c13.549-0.027,25.925-0.646,37.23-1.737c10.283,50.834,21.536,129.011,24.838,152.464
				C652.547,1007.512,631.014,1012.003,601.356,1012.309z M600.001,838.118c-37.082-0.036-64.51-4.661-84.71-11.006
				c2.916,0.22,6.052,0.355,9.466,0.355c9.769,0,21.615-1.033,35.755-3.846c21.358-4.248,33.405-16.743,39.508-28.245
				c5.66,10.728,17.066,24.089,39.568,28.263c13.991,2.598,25.711,3.553,35.396,3.553c3.914,0,7.457-0.17,10.719-0.437
				C665.4,833.28,637.691,838.081,600.001,838.118z M452.71,666.031c-0.74-2.975-2.096-8.567-3.871-16.506
				c0.598-0.038,1.2-0.124,1.799-0.303c13.763-4.129,22.501-16.978,25.706-22.477c18.395,7.906,37.274,13.271,54.727,16.913
				c0.145,0.325,0.277,0.654,0.469,0.964l48.885,79.149C564.237,726.508,523.199,724.486,452.71,666.031z M597.823,651.252
				c0.125,0.006,0.242,0.037,0.369,0.037c0.534,0,1.15-0.003,1.808-0.008c0.657,0.005,1.273,0.008,1.808,0.008
				c0.127,0,0.244-0.031,0.369-0.037c9.514-0.16,27.653-0.978,49.656-4.455l-17.266,27.625c-0.476-0.087-0.961-0.147-1.462-0.147
				h-63.256c-0.355,0-0.694,0.06-1.037,0.104l-16.664-26.98C572.348,650.364,588.89,651.101,597.823,651.252z M602.341,768.989
				c-9.293,0-16.851-7.561-16.851-16.853c0-9.293,7.558-16.851,16.851-16.851c9.292,0,16.851,7.558,16.851,16.851
				C619.191,761.428,611.633,768.989,602.341,768.989z M602.341,719.211c-1.888,0-3.727,0.195-5.529,0.502l-18.137-29.366h45.936
				l-18.213,29.141C605.065,719.323,603.717,719.211,602.341,719.211z M570.036,745.839c-0.397,2.04-0.619,4.142-0.619,6.296
				c0,13.124,7.737,24.446,18.871,29.732c-2.135,6.992-9.13,21.658-30.911,25.989c-30.792,6.124-48.851,2.823-56.867,0.324
				c4.181-15.249,19.584-54.873,67.889-61.919C568.971,746.179,569.516,746.032,570.036,745.839z M642.519,807.838
				c-19.552-3.629-27.346-16.757-30.276-24.304c13.329-4.214,23.021-16.693,23.021-31.399c0-1.819-0.186-3.591-0.472-5.331
				c46.121,8.321,60.711,46.245,64.721,61.274C691.488,810.486,673.531,813.591,642.519,807.838z M623.628,722.246l49.715-79.542
				c16.199-3.607,33.457-8.715,50.311-15.959c3.204,5.499,11.944,18.347,25.708,22.477c0.598,0.179,1.199,0.264,1.797,0.303
				c-1.774,7.938-3.129,13.532-3.869,16.507C676.992,724.345,638.419,725.338,623.628,722.246z M754.496,634.038
				c-0.176-0.067-0.336-0.159-0.519-0.214c-6.935-2.079-12.753-9.328-15.706-13.979c7.415-3.843,14.641-8.18,21.575-13.015
				C757.948,617.044,756.136,626.157,754.496,634.038z M461.727,619.844c-2.951,4.651-8.767,11.901-15.703,13.98
				c-0.184,0.055-0.345,0.149-0.523,0.216c-1.64-7.881-3.453-16.995-5.351-27.213C447.083,611.663,454.31,616,461.727,619.844z
				 M437.618,681.722c0.696-0.795,1.193-1.692,1.522-2.632c1.492-0.065,2.787-0.143,3.864-0.224
				c42.33,35.001,75.408,51.033,99.864,57.633c-50.765,20.186-59.529,74.665-59.622,75.289c-0.039,0.262-0.046,0.523-0.06,0.784
				c-13.671-8.81-19.349-17.265-21.118-20.428c3.014-29.756,16.487-53.539,16.728-53.96c2.218-3.841,0.908-8.754-2.933-10.977
				c-3.838-2.218-8.759-0.913-10.983,2.93c-0.361,0.625-5.211,9.116-9.982,22.378c-5.024,0.351-30.938,1.346-45.137-13.888
				C411.188,730.097,416.909,705.43,437.618,681.722z M419.405,763.551c11.531,4.352,23.187,5.207,30.531,5.209
				c-1.861,7.407-3.364,15.565-4.082,24.189c-0.099,1.169,0.06,2.344,0.466,3.445c0.162,0.439,1.054,2.714,3.24,6.125
				c-4.202,4.101-8.211,8.183-12.01,12.237C421.613,802.335,419.295,777.716,419.405,763.551z M380.623,949.677
				c2.025-12.332,14.773-71.39,79.299-134.826c5.566,5.309,13.243,11.154,23.739,16.681
				c-12.377,42.772-42.193,122.02-51.242,145.828C412.621,971.087,387.6,959.944,380.623,949.677z M498.439,838.26
				c12.739,5.009,28.458,9.363,47.842,12.247c-10.244,51.009-21.34,127.958-24.7,151.802c-15.628-1.011-53.222-4.766-74.576-18.075
				C455.475,962.016,485.184,883.296,498.439,838.26z M527.221,1018.698c5.639,1.669,31.928,8.832,70.222,9.641l1.667,12.46
				c-32.46,4.887-59.04-3.365-59.308-3.45c-0.147-0.047-0.295-0.056-0.443-0.095l-12.742-18.578
				C526.828,1018.684,527.046,1018.692,527.221,1018.698z M552.569,1056.515c6.927,1.064,15.537,1.933,25.303,1.933
				c7.242,0,15.125-0.507,23.367-1.734l5.47,40.883c-14.483,0.801-26.99-5.142-30.943-7.259L552.569,1056.515z M619.725,1128.501
				c-0.837,2.014-6.572,5.426-22.742,5.426c-13.371,0-22.305-2.873-25.159-8.089c-2.784-5.086-0.646-12.896,1.836-18.682
				c6.881,2.997,17.758,6.606,30.335,6.606c2.84,0,5.77-0.208,8.752-0.625C617.343,1118.706,620.94,1125.584,619.725,1128.501z
				 M632.821,1071.087c-5.175,9.312-8.273,17.682-10.144,24.656l-6.411-47.925c6.228,3.178,14.735,5.974,26.053,7.143
				C639.526,1059.524,636.381,1064.679,632.821,1071.087z M678.42,1002.309c-3.36-23.844-14.455-100.792-24.7-151.802
				c19.382-2.884,35.102-7.238,47.839-12.247c13.255,45.036,42.967,123.756,51.434,145.974
				C731.639,997.542,694.047,1001.298,678.42,1002.309z M767.581,977.361c-9.049-23.807-38.867-103.052-51.244-145.828
				c10.498-5.527,18.175-11.373,23.742-16.682c64.57,63.481,77.292,122.573,79.302,134.837
				C812.204,960.381,786.576,971.347,767.581,977.361z M762.45,814.756c-3.799-4.054-7.808-8.135-12.009-12.236
				c2.186-3.411,3.078-5.686,3.24-6.125c0.406-1.101,0.565-2.276,0.466-3.445c-0.718-8.624-2.221-16.783-4.082-24.189
				c7.344-0.002,18.999-0.857,30.529-5.208C780.705,777.718,778.388,802.336,762.45,814.756z M745.102,752.514
				c-4.771-13.261-9.621-21.753-9.982-22.377c-2.226-3.841-7.142-5.151-10.982-2.93c-3.843,2.226-5.154,7.142-2.93,10.983
				c0.141,0.241,13.688,23.935,16.725,53.955c-1.776,3.159-7.476,11.592-21.123,20.386c-0.014-0.247-0.018-0.493-0.055-0.741
				c-0.092-0.624-8.86-55.119-59.647-75.298c23.695-5.948,56.473-21.701,99.891-57.625c1.076,0.081,2.37,0.159,3.861,0.224
				c0.328,0.939,0.825,1.836,1.52,2.632c20.573,23.548,26.384,48.37,27.846,56.917C776.021,753.858,750.129,752.864,745.102,752.514
				z M764.533,663.095c6.878-29.165,27.043-122.54,33.874-240.954c8.395-145.512-79.91-243.745-83.672-247.857
				c-2.995-3.273-8.081-3.496-11.354-0.501c-3.275,2.998-3.5,8.081-0.502,11.355c0.734,0.8,61.488,68.42,76.6,171.813H420.543
				c15.115-103.07,75.648-170.788,76.58-171.813c2.995-3.274,2.773-8.357-0.502-11.355c-3.273-2.997-8.356-2.769-11.354,0.501
				c-3.762,4.111-92.07,102.345-83.672,247.857c6.831,118.414,26.996,211.789,33.874,240.954
				c-13.314,0.222-38.622-1.308-57.955-14.31c-9.753-25.468-97.825-263.566-39.315-400.938
				C402.075,97.877,485.835,66.65,600.001,66.087c114.166,0.563,197.926,31.79,261.803,181.76
				c58.507,137.372-29.562,375.468-39.315,400.938C803.15,661.79,777.889,663.331,764.533,663.095z"/>
			<circle fill="#1A122E" cx="701.893" cy="453.48" r="19.357"/>
			<path fill="#1A122E" d="M597.356,574.725c0.247,0.026,0.485,0.081,0.739,0.084c0.055,0,0.154,0,0.293,0
				c0.175,0,0.434-0.002,0.733-0.007c0.616,0.018,1.158,0.026,1.601,0.026c0.821,0,1.332-0.021,1.481-0.029
				c0.464-0.023,0.91-0.105,1.35-0.203c11.62-0.842,38.8-4.98,53.646-25.085c2.637-3.571,1.881-8.603-1.69-11.239
				c-3.566-2.634-8.602-1.88-11.239,1.69c-12.542,16.982-39.635,18.604-45.037,18.757c-6.765-0.273-27.8-2.564-44.179-19.56
				c-3.082-3.197-8.17-3.287-11.365-0.209c-3.194,3.081-3.288,8.169-0.209,11.365C563.015,570.582,587.178,574.156,597.356,574.725z
				"/>
			<circle fill="#1A122E" cx="498.107" cy="453.48" r="19.357"/>
		</g>
		<g>
			<circle fill="#312D3D" cx="502.031" cy="453.48" r="13.946"/>
			<circle fill="#312D3D" cx="705.405" cy="453.48" r="13.946"/>
		</g>
	</g>
</g>
</svg>
