<?xml version="1.0" encoding="utf-8"?>
<!-- Generator: Adobe Illustrator 23.0.6, SVG Export Plug-In . SVG Version: 6.00 Build 0)  -->
<svg version="1.1" id="Layer_1" xmlns="http://www.w3.org/2000/svg" xmlns:xlink="http://www.w3.org/1999/xlink" x="0px" y="0px"
	 viewBox="0 0 1200 1200" enable-background="new 0 0 1200 1200" xml:space="preserve">
<g>
	<g>
		<g>
			<path fill="#F0C9A1" d="M426.295,485.539c0,0-46.183,51.319,37.067,78.213c0,0,20.721,99.508,159.898,127.747l56.205,45.72
				l74.231-49.082c0,0,98.256-12.102,149.981-125.73c0,0,74.08-15.844,31.555-80.682c0,0-44.826,93.121-23.757-52.107
				l-27.341-55.968c0,0-13.111,28.738-28.239,29.746c-15.128,1.009-18.379-33.281-37.932-44.375c0,0,27.847,74.631-87.125-10.085
				c0,0,24.205,50.426-1.009,44.375c-25.213-6.051-41.35-19.661-41.35-19.661s11.094,43.866-115.981-42.868
				c0,0-4.974,58.495-23.666,69.589c0,0,1.478-31.499-18.692-56.091c0,0-6.64,41.971-27.819,61.133
				c-21.179,19.162-51.487,48.409-45.804,111.541C456.516,516.954,440.449,514.229,426.295,485.539z"/>
			<path fill="#F6DFC2" d="M473.325,913.636c0,0-38.231-59.979-51.771-61.445c-13.541-1.466-22.12,24.205-8.034,64.546
				C427.605,957.078,465.257,931.378,473.325,913.636z"/>
			<path fill="#F6DFC2" d="M894.218,913.016c0,0,17.076-40.654,34.087-45.36c0,0,36.081,40.985,11.553,59.232
				C915.331,945.134,906.32,940.222,894.218,913.016z"/>
			<path fill="#F0C9A1" d="M582.142,1057.377l62.633,9.63c0,0,0.952,33.299,3.362,52.109s-43.031,32.434-73.286,14.872
				c0,0,5.379-15.542,16.136-33.697C600,1090.204,582.142,1057.377,582.142,1057.377z"/>
			<path fill="#F0C9A1" d="M719.406,1067.007l57.822-5.714c0,0-12.102,37.652-6.051,43.703c6.051,6.051,45.048,37.27-22.86,37.125
				C695.202,1142.121,726.802,1116.423,719.406,1067.007z"/>
		</g>
		<g>
			<path fill="#F6DFC2" d="M621.915,662.672c65.134,31.264,143.295,7.816,190.192-49.502c55.227-67.308,73.846-150.621,68.78-233.28
				c-4.807,8.512-14.402,22.8-24.993,23.506c-15.128,1.009-18.379-33.281-37.932-44.375c0,0,27.847,74.631-87.125-10.085
				c0,0,24.205,50.427-1.008,44.375c-25.213-6.051-41.35-19.661-41.35-19.661s11.094,43.866-115.981-42.868
				c0,0-4.974,58.495-23.666,69.588c0,0,1.478-31.499-18.692-56.091c0,0-6.639,41.971-27.818,61.133
				c-1.116,1.01-2.262,2.055-3.422,3.124C498.6,507.752,529.801,619.039,621.915,662.672z"/>
			<path fill="#F6DFC2" d="M590.987,1100.291c-10.758,18.155-16.136,33.697-16.136,33.697c30.256,17.562,75.696,3.938,73.286-14.872
				c-0.803-6.272-1.444-14.155-1.942-21.877c-18.351-2.954-36.342-7.407-53.706-13.514
				C593.999,1090.444,594.141,1096.761,590.987,1100.291z"/>
			<path fill="#F6DFC2" d="M771.177,1104.996c-1.401-1.401-1.821-4.507-1.651-8.436c-16.614,2.602-33.404,4.252-50.183,4.886
				c-3.378,26.845-9.966,40.675,28.975,40.674C816.225,1142.266,777.229,1111.047,771.177,1104.996z"/>
		</g>
	</g>
	<g>
		<path fill="#312A2A" d="M450.834,187.571c0,0-15.496-42.358,68.212-74.631s203.723-104.887,292.473,0
			c0,0,73.217,19.162,116.787,74.631h-23.133c0,0,103.009,95.262,82.838,191.851s-66.63,100.446-76.537,124.271
			c0,0-6.949-31.716,0-74.074l-27.341-55.968c0,0-12.103,32.63-28.239,29.746c-16.136-2.884-24.43-30.256-37.932-44.375
			c0,0-0.392,31.264-10.477,30.256c-10.085-1.009-76.648-40.341-76.648-40.341l4.391,44.751l-44.937-24.58
			c0,0,19.367,53.452-117.793-38.324c0,0,2.192,59.005-16.136,66.563c-18.329,7.557,8.189-15.587-27.17-48.134
			c0,0-12.163,45.665-40.401,67.296s-37.102,88.429-31.264,105.827c0,0-28.239-18.565-32.273-55.136
			c0,0-85.725-49.682-23.196-211.047L366.63,270.27C366.63,270.27,355.392,207.741,450.834,187.571z"/>
		<path fill="#473F3F" d="M874.636,326.58c18.238,15.632,20.843,46.897,44.291,52.107c18.238,2.605,36.475-23.448,31.264-44.291
			c-13.027-52.107-54.713-88.582-75.556-132.874c-5.211-13.027-15.632-36.475-28.659-44.291
			c-33.87-15.632-62.529-31.264-88.582-57.318c-49.502-44.291-122.452-23.448-179.77,2.605
			c-39.08,18.238-91.188,54.713-99.004,104.215c-5.211,23.448-44.291,44.291-52.107,75.556
			c-16.955,58.132-13.612,136.501,39.274,170.268c5.353-14.896,12.942-28.343,23.003-36.05
			c28.239-21.631,40.401-67.296,40.401-67.296c35.359,32.548,8.841,55.692,27.17,48.134c18.329-7.557,16.137-66.563,16.137-66.563
			c137.16,91.776,117.793,38.324,117.793,38.324l44.938,24.58l-4.391-44.751c0,0,66.563,39.333,76.648,40.341
			c10.085,1.008,10.477-30.256,10.477-30.256c0.042,0.044,0.082,0.096,0.124,0.14c-2.927-17.808-9.57-35.616-11.189-53.424
			C825.134,323.974,853.793,370.871,874.636,326.58z"/>
	</g>
	<g>
		<path fill="#3F5855" d="M619.148,684.791l60.316,52.428l74.231-49.082l71.942-30.256c0,0,103.805,109.875,108.921,194.25
			c0,0-14.063,15.083-40.341,51.443c-26.279,36.359-54.067,34.149-54.067,34.149l-26.616,108.106c0,0-78.597,39.333-264.704,4.034
			c0,0-20.328-38.71-26.57-112.14c0,0-31.883,11.672-58.899-42.562c-15.922-33.936-37.067-43.03-37.067-43.03
			s24.223-107.221,115.855-190.946C542.15,661.186,578.058,678.755,619.148,684.791z"/>
		<path fill="#526E6A" d="M783.448,733.017c-59.923,33.87-122.452,28.659-184.981,5.211
			c-74.35,91.698-40.258,209.328-32.271,314.768c123.298,21.097,196.203,8.621,228.113-0.388
			C820.086,946.961,821.621,834.811,783.448,733.017z"/>
		<path fill="#526E6A" d="M856.398,738.228c-13.027-13.027-15.632,15.632-10.421,28.659
			c16.082,52.839,20.004,107.705,20.708,162.809c8.47-4.998,18.096-13.063,27.534-26.122c12.674-17.536,22.476-30.08,29.259-38.412
			C911.978,817.303,892.425,772.617,856.398,738.228z"/>
		<path fill="#526E6A" d="M506.708,738.228c13.027-13.027,15.632,15.632,10.421,28.659
			c-16.082,52.839-20.004,107.705-20.708,162.809c-8.47-4.998-18.096-13.063-27.533-26.122
			c-12.674-17.536-22.476-30.08-29.259-38.412C451.128,817.303,470.681,772.617,506.708,738.228z"/>
	</g>
	<g>
		<path fill="#5C2727" d="M528.717,832.777c0,0-26.435,19.784-6.455,75.068c0,0,164.988,80.915,317.89-9.053
			c0,0,14.767-36.204-6.429-58.674C833.723,840.119,653.36,911.443,528.717,832.777z"/>
		<path fill="#773F3F" d="M810.213,848.067c-48.711,14.84-163.97,41.484-257.917-2.431c-2.725,24.248-4.854,48.495-3.87,72.743
			c48.72,17.172,158.295,44.422,266.671-6.425C815.641,890.679,814.056,869.241,810.213,848.067z"/>
	</g>
	<g>
		<ellipse fill="#F0BDA1" cx="553.899" cy="558.771" rx="39.105" ry="21.511"/>
		<ellipse fill="#F0BDA1" cx="817.041" cy="558.771" rx="39.105" ry="21.511"/>
	</g>
	<g>
		<path fill="#ADA180" d="M402.057,902.69l-45.721-29.903c0,0-36.307,29.712-114.3-33.43s9.929-129.627,34.962-143.449
			s36.307-3.025,59.167,32.59c22.86,35.615,39.941,65.079,39.469,123.633l30.659,15.524L402.057,902.69z"/>
		<path fill="#C9BC95" d="M330.114,852.864c24.582-5.268,37.319-19.713,42.92-38.737c-5.572-35.211-19.56-58.662-36.869-85.628
			c-22.86-35.615-34.134-46.412-59.167-32.59c-17.084,9.433-63.442,43.395-66.382,84.081
			C240.967,822.881,281.406,866.78,330.114,852.864z"/>
	</g>
	<g>
		<g>
			<circle fill="#1A122E" cx="562.684" cy="485.913" r="18.341"/>
			<path fill="#1A122E" d="M739.151,574.533c-3.725-2.1-8.467-0.772-10.622,2.913c-0.443,0.763-11.131,18.293-47.382,19.045
				c-36.044-0.751-46.81-18.09-47.365-19.031c-2.089-3.722-6.796-5.087-10.559-3.035c-3.788,2.067-5.185,6.815-3.119,10.605
				c0.578,1.057,14.037,24.749,56.992,26.949c0.532,0.114,1.081,0.181,1.646,0.181c0.821,0,1.608-0.026,2.409-0.041
				c0.801,0.015,1.589,0.041,2.409,0.041c0.565,0,1.114-0.067,1.646-0.181c42.956-2.2,56.415-25.893,56.992-26.949
				C744.245,581.28,742.871,576.634,739.151,574.533z"/>
			<circle fill="#1A122E" cx="799.62" cy="485.913" r="18.341"/>
			<path fill="#1A122E" d="M998.452,336.627c-3.216-54.631-51.794-111.26-78.202-138.21l17.174,1.808
				c3.102,0.331,6.076-1.207,7.613-3.907c1.534-2.698,1.328-6.05-0.527-8.539c-25.693-34.451-73.42-59.19-112.453-74.8
				c-1.276-1.505-31.57-36.535-97.885-57.926c-54-17.421-129.118,13.813-189.477,38.906c-15.289,6.356-29.728,12.359-41.935,16.719
				c-34.844,12.445-48.495,34.195-53.698,51.528c-2.478-9.64-3.149-23.124,2-40.95c1.198-4.147-1.191-8.48-5.338-9.679
				c-4.16-1.198-8.483,1.195-9.679,5.34c-9.107,31.519-2.624,52.655,4.009,64.525c-29.071,5.536-50.729,17.569-64.482,35.865
				c-20.138,26.793-15.401,56.911-15.189,58.179c0.433,2.6,2.147,4.807,4.559,5.868c2.412,1.062,5.198,0.837,7.409-0.6
				l18.347-11.925c-9.971,23.976-21.889,62.293-19.935,105.295c2.796,61.479,35.358,87.413,46.698,94.618
				c0.629,4.169,1.431,8.095,2.356,11.831c-3.675,1.897-7.84,5.006-11.03,10.12c-5.969,9.57-6.29,22.546-0.947,38.567
				c10.236,30.715,34.407,39.931,49.188,40.93c5.665,13.599,13.924,29.352,25.882,45.159c10.982,14.518,25.982,30.082,46.211,43.865
				c-21.919,20.006-84.386,84.305-110.357,187.129c-5.105,1.002-11.076,3.618-15.17,9.341c-0.569,0.795-1.071,1.634-1.539,2.495
				l-22.036-14.084c8.941-37.664-10.805-89.41-41.297-129.045c-18.792-24.423-32.257-34.496-46.479-34.768
				c-0.191-0.005-0.377-0.005-0.565-0.005c-19.779,0-37.826,19.891-62.989,50.128c-20.8,24.993-29.237,44.011-27.354,61.669
				c2.473,23.229,22.568,40.661,48.578,61.035c30.234,23.688,55.776,35.475,77.143,35.475c10.742,0,20.417-3.014,29.113-8.961
				l35.281,21.85c2.755,5.6,10.684,20.469,22.469,32.254c5.997,5.999,14.485,9.175,23.677,9.175c4.107,0,8.355-0.634,12.582-1.936
				c9.514-2.928,17.292-8.652,22.183-15.928c15.481,15.87,30.232,19.177,39.732,19.177c0.883,0,1.708-0.034,2.497-0.082
				c2.622,29.518,9.266,69.292,25.557,107.513c0.674,1.585,1.855,2.901,3.353,3.745c0.663,0.374,9.189,4.99,30.728,9.432
				l10.299,37.764c-8.134,6.585-20.978,19.299-17.385,31.61c3.692,12.643,20.538,14.915,32.885,15.525
				c3.707,0.183,7.195,0.277,10.48,0.277c20.8,0,33.335-3.717,40.037-11.701c8.043-9.582,5.198-22.092,2.687-33.132l-0.104-0.461
				c-3.018-13.278-1.702-25.921-0.756-31.856c7.905,0.245,16.302,0.385,25.273,0.385c0.743,0,1.486,0,2.236-0.003
				c0.522-0.001,1.03-0.058,1.523-0.157c0.482,0.093,0.977,0.15,1.487,0.15c0.005,0,0.013,0,0.02,0
				c9.787-0.025,18.924-0.206,27.462-0.513c0.944,5.944,2.244,18.542-0.765,31.8l-0.104,0.466
				c-2.511,11.058-5.356,23.591,2.712,33.14c6.6,7.816,18.828,11.467,39.007,11.467c3.567,0,7.389-0.115,11.467-0.341
				c7.106-0.392,28.733-1.59,32.791-15.726c3.529-12.297-9.238-24.893-17.35-31.427l10.277-37.785
				c21.497-4.542,29.99-9.192,30.651-9.567c1.491-0.847,2.659-2.16,3.331-3.738c16.232-38.226,22.852-77.959,25.464-107.433
				c0.741,0.043,1.518,0.071,2.343,0.071c9.852,0,25.447-3.575,41.624-21.301c3.192,8.58,8.651,18.006,17.849,21.721
				c2.687,1.086,5.463,1.628,8.322,1.628c6.801-0.003,14.06-3.068,21.683-9.18c10.205-8.18,15.523-18.067,15.805-29.389
				c0.453-18.258-12.903-34.695-19.731-41.884c4.008-4.302,6.103-6.062,6.145-6.096c2.336-1.89,3.384-4.951,2.694-7.875
				c-24.956-105.828-89.143-171.891-111.295-192.128c20.171-13.764,35.138-29.296,46.1-43.788
				c11.958-15.807,20.217-31.56,25.882-45.159c14.783-1.001,38.952-10.217,49.188-40.93c5.061-15.178,4.704-27.986-1.056-38.069
				c-1.899-3.326-4.182-5.976-6.54-8.104C979.93,468.981,1002.493,405.379,998.452,336.627z M422.671,524.315
				c-3.704-11.111-3.951-19.819-0.72-25.185c0.821-1.363,1.819-2.396,2.838-3.215c5.638,13.834,13.203,23.892,20.629,31.086
				c-0.228,0.916-0.31,1.883-0.183,2.875c0.102,0.795,1.33,9.822,5.6,23.357C441.831,550.714,429.133,543.703,422.671,524.315z
				 M416.257,864.852c1.503-2.158,4.01-2.941,5.851-3.229c2.498,2.406,7.238,7.289,14.074,15.66c0.006,0.69,0.07,1.386,0.269,2.082
				c4.552,15.912-1.018,26.73-5.414,28.318c-2.786,1.01-6.636-2.755-9.544-9.376C411.532,875.635,414.514,867.358,416.257,864.852z
				 M259.553,840.804c-26.397-20.678-41.017-34.831-42.673-50.385c-1.376-12.935,6.193-28.829,23.825-50.016
				c24.525-29.468,39.195-44.495,50.978-44.495c0.087,0,0.176,0,0.262,0.003c8.773,0.168,19.057,8.742,34.389,28.669
				c36.763,47.787,55.939,113.071,24.392,139.608c-0.003,0-0.003,0-0.003,0C330.826,880.93,301.002,873.271,259.553,840.804z
				 M368.15,868.651c2.439-2.984,4.523-6.186,6.295-9.567l21.538,13.765c0.89,0.568,1.854,0.918,2.833,1.093
				c0.168,4.611,1.059,9.722,2.705,15.377L368.15,868.651z M445.582,926.025c-6.274,1.933-14.845,2.083-20.327-3.121
				c1.582,0.411,3.153,0.609,4.685,0.609c2.247,0,4.409-0.41,6.401-1.127c7.926-2.86,14.448-11.248,16.644-22.869
				c2.31,3.263,4.731,6.758,7.27,10.517c0.429,0.636,0.86,1.198,1.29,1.811C459.502,918.146,453.475,923.596,445.582,926.025z
				 M473.211,901.287c-19.973-29.578-33.419-44.223-39.556-50.242c26.08-104.261,93.149-168.843,109.323-183.204
				c19.092,10.913,42.119,20.105,69.821,25.869c0.471,0.99,1.141,1.903,2.039,2.651l49.171,40.915
				c-50.369,31.656-103.112,62.984-126.793,76.936c3.829-38.366,14.413-73.982,14.531-74.384c1.242-4.132-1.104-8.49-5.239-9.732
				c-4.134-1.234-8.49,1.104-9.732,5.236c-0.563,1.873-13.542,45.517-16.118,89.946c-6.522,7.69-23.175,32.789-7.528,74.382
				c-0.145,3.924-0.383,14.315,0.368,28.901C506.36,928.911,490.166,926.396,473.211,901.287z M679.371,700.2
				c0.616,0,1.208-0.088,1.782-0.223c0.575,0.135,1.167,0.223,1.782,0.223c14.988,0,28.976-0.894,42.088-2.491
				c-14.31,9.687-30.414,20.164-47.127,30.789l-36.394-30.283C653.386,699.5,665.987,700.2,679.371,700.2z M680.462,878.653
				c0.193,0,0.387,0,0.58,0c0.115,0,0.222-0.029,0.336-0.034c0.115,0.005,0.224,0.034,0.34,0.034c0.003,0,0.008,0,0.01,0
				c89.557-0.115,135.278-27.168,151.285-39.295c5.216,8.379,12.167,26.367,1.696,54.317c-5.9,5.664-43.902,37.577-150.554,37.76
				c-0.988,0.002-1.924,0.206-2.794,0.542c-0.866-0.331-1.796-0.532-2.778-0.532c-0.394-0.013-0.595,0-0.901,0
				c-105.237,0-144.033-31.822-149.974-37.355c-10.517-28.024-3.482-46.072,1.741-54.434
				C545.439,851.725,591.109,878.653,680.462,878.653z M637.883,1108.172l0.107,0.463c1.868,8.218,3.633,15.978,0.583,19.614
				c-2.326,2.773-10.33,7.216-37.77,5.862c-16.052-0.794-18.617-4.267-18.645-4.267c-0.402-2.672,6.824-11.437,15.826-17.856
				c2.674-1.901,3.878-5.267,3.015-8.429l-9.748-35.744c12.23,1.814,27.235,3.393,45.408,4.373
				C635.565,1079.931,634.567,1093.576,637.883,1108.172z M764.694,1111.517c8.981,6.366,16.172,15.06,15.785,17.632
				c-0.02,0.036-2.443,3.59-18.652,4.488c-27.359,1.516-35.351-2.862-37.668-5.608c-3.04-3.598-1.277-11.365,0.59-19.591
				l0.107-0.466c3.318-14.621,2.315-28.267,1.221-35.998c18.146-1.067,33.089-2.723,45.299-4.594l-9.712,35.705
				C760.801,1106.251,762.015,1109.622,764.694,1111.517z M809.155,1042.127c-8.584,3.557-43.136,15.261-126.284,15.467
				c-0.522,0.001-1.03,0.058-1.523,0.157c-0.482-0.093-0.977-0.15-1.487-0.15c-0.606,0-1.473,0.003-2.203,0.003
				c-81.759,0-115.847-11.401-124.289-14.854c-20.448-49.593-24.162-102.703-24.652-128.314
				c19.976,12.897,64.369,32.641,148.957,32.641c0.3,0,0.623,0,0.924,0c0.988-0.002,1.924-0.206,2.794-0.542
				c0.866,0.331,1.796,0.532,2.778,0.532c0.005,0,0.01,0,0.013,0c84.98-0.145,129.52-20.068,149.541-33.056
				C833.229,939.604,829.515,992.58,809.155,1042.127z M939.851,906.765c-0.176,6.58-3.43,12.317-9.951,17.546
				c-4.183,3.351-10.055,6.992-14.368,5.257c-6.32-2.54-10.359-14.988-11.856-22.742c8.702-12.808,16.005-22.505,21.819-29.69
				C931.616,883.861,940.146,895.728,939.851,906.765z M928.305,850.449c-6.101,6.017-19.469,20.655-39.332,50.207
				c-16.96,25.237-32.935,27.754-40.028,27.38c0.749-14.557,0.512-24.924,0.367-28.843c15.578-41.536-0.997-66.556-7.502-74.232
				c-2.565-44.338-15.5-87.889-16.063-89.759c-1.239-4.135-5.597-6.488-9.732-5.239c-4.134,1.239-6.48,5.597-5.239,9.732
				c0.13,0.438,12.765,42.938,15.373,85.171c-10.055,8.32-52.425,38.037-144.44,38.154c-0.115,0-0.222,0.029-0.336,0.034
				c-0.115-0.005-0.224-0.034-0.34-0.034c-0.3-0.028-0.374,0-0.56,0c-79.051,0-121.747-22.275-138.322-33.573
				c36.222-21.308,162.22-96.07,219.508-138.376c0.101-0.074,0.176-0.168,0.271-0.246c22.311-5.752,41.33-13.786,57.52-23.055
				C835.424,681.964,902.339,746.389,928.305,850.449z M866.926,605.919c-39.475,52.189-101.378,78.649-183.991,78.649
				c-0.616,0-1.208,0.088-1.782,0.223c-0.575-0.135-1.167-0.223-1.782-0.223c-82.288,0-144.043-26.265-183.549-78.067
				c-19.59-25.687-28.595-51.666-32.46-66.396c4.648,2.441,7.86,3.457,8.34,3.601c0.743,0.223,1.499,0.331,2.247,0.329
				c2.582,0,5.061-1.284,6.534-3.525c1.898-2.889,1.672-6.681-0.555-9.326c-17.337-20.585-16.222-45.857-14.017-59.09
				c3.801-22.792,16.228-44.029,30.923-52.845c21.09-12.654,31.432-38.678,36.333-57.49c5.926,13.344,10.483,30.411,4.865,43.516
				c-1.259,2.942-0.598,6.357,1.669,8.616c2.269,2.259,5.687,2.908,8.623,1.633c1.405-0.608,32.411-14.745,31.473-70.872
				c3.302,2.581,6.784,5.072,10.5,7.423c51.883,32.824,92.928,42.536,94.651,42.934c2.323,0.532,4.763-0.017,6.623-1.5
				c1.865-1.482,2.951-3.735,2.951-6.116v-3.808c10.923,6.047,27.847,13.771,45.823,15.768c0.287,0.033,0.578,0.048,0.862,0.048
				c2.346,0,4.585-1.056,6.078-2.902c1.677-2.074,2.18-4.857,1.336-7.386l-7.468-22.408c17.713,11.009,44.77,25.786,68.783,30.455
				c3,0.585,6.073-0.642,7.852-3.13c1.337-1.872,4.646-7.784,4.901-20.562c5.815,7.564,9.355,14.027,12.179,19.183
				c5.386,9.84,10.508,19.14,25.229,18.263c10.79-0.635,17.731-8.85,22.135-18.011c2.305,6.226,5.038,13.098,8.114,19.927
				c4.4,9.009,9.36,15.221,14.826,18.598c-8.236,50.44-4.325,86.509-3.202,94.815c-0.187,0.523-0.33,1.07-0.404,1.644
				C901.516,528.278,896.252,567.151,866.926,605.919z M939.635,524.315c-6.461,19.38-19.169,26.39-28.161,28.913
				c4.199-13.312,5.453-22.242,5.589-23.285c0.323-0.725,0.563-1.497,0.653-2.322c0.032-0.277,2.578-22.031,15.13-35.433
				c2.354,1.319,5.173,3.491,7.08,6.915C943.294,505.149,943.194,513.633,939.635,524.315z M939.721,469.15
				c-4.172,1.545-7.876,3.612-11.185,6.025c-2.395,0.558-4.42,2.225-5.401,4.564c-2.815,2.745-5.268,5.745-7.391,8.866
				c0.183-14.874,1.409-33.6,4.902-54.922c15.989-4.564,26.057-28.862,28.044-34.069c1.539-4.029-0.481-8.54-4.508-10.083
				c-4.028-1.541-8.546,0.472-10.093,4.501c-4.427,11.527-13.121,24.535-18.523,24.771c-2.191,0.086-6.478-3.213-11.07-12.607
				c-9.076-20.17-15.271-41.697-15.332-41.912c-1.025-3.579-4.442-5.929-8.139-5.638c-3.707,0.296-6.694,3.17-7.139,6.865
				c-1.219,10.162-6.783,29.336-14.704,29.803c-4.404,0.258-5.063-0.052-10.602-10.167c-4.539-8.288-10.755-19.638-24.191-33.572
				c-1.159-1.201-2.612-1.939-4.136-2.233c-3.165-16.166-9.855-37.602-22.67-65.795c-1.786-3.928-6.417-5.667-10.35-3.881
				c-3.931,1.786-5.669,6.419-3.883,10.349c24.677,54.287,24.644,80.331,22.932,90.25c-34.346-9.316-74.696-38.686-75.126-39
				c-2.74-2.01-6.475-2.016-9.226-0.011c-2.748,2.005-3.885,5.558-2.809,8.787l10.442,31.328
				c-20.777-5.701-38.088-17.988-38.289-18.132c-2.381-1.716-5.524-1.953-8.132-0.613c-2.61,1.337-4.252,4.023-4.252,6.956v7.445
				c-14.772-4.684-45.1-15.929-80.237-38.156c-47.403-29.992-56.048-85.841-56.178-86.719c-0.603-4.269-4.552-7.241-8.826-6.647
				c-4.274,0.599-7.254,4.552-6.653,8.826c0.293,2.099,6.377,42.765,37.422,76.207c-0.6,1.229-0.911,2.618-0.786,4.08
				c2.178,25.255-2.249,41.384-7.646,51.429c-2.27-25.924-19.169-50.053-20.118-51.387c-1.888-2.66-5.234-3.867-8.389-3.024
				c-3.152,0.842-5.45,3.554-5.763,6.803c-0.048,0.505-5.185,50.766-32.923,67.41c-18.685,11.21-33.717,36.205-38.299,63.678
				c-2.468,14.805-1.799,29.038,1.832,41.963c-8.668-10.013-17.034-25.381-19.879-48.535c-0.318-2.595-1.954-4.879-4.292-6.053
				c-1.585-0.796-38.897-20.244-41.772-83.484c-2.995-65.869,30.005-121.887,30.336-122.441c1.873-3.121,1.343-7.12-1.275-9.647
				c-2.623-2.528-6.641-2.912-9.686-0.927l-30.122,19.578c0.791-9.072,3.669-21.613,12.437-33.277
				c13.07-17.388,35.569-28.062,66.872-31.726c0.123-0.014,0.238-0.059,0.36-0.079c0.254-0.042,0.502-0.099,0.752-0.166
				c0.271-0.073,0.534-0.157,0.794-0.257c0.238-0.092,0.469-0.194,0.699-0.31c0.256-0.129,0.499-0.274,0.739-0.43
				c0.209-0.136,0.412-0.275,0.609-0.433c0.246-0.196,0.471-0.414,0.693-0.64c0.111-0.113,0.24-0.198,0.345-0.319
				c0.055-0.064,0.09-0.137,0.143-0.202c0.054-0.067,0.123-0.118,0.175-0.187c0.111-0.146,0.185-0.312,0.285-0.464
				c0.146-0.223,0.293-0.442,0.414-0.675c0.113-0.217,0.201-0.44,0.293-0.665c0.104-0.256,0.206-0.509,0.282-0.772
				c0.065-0.227,0.107-0.456,0.152-0.687c0.052-0.271,0.1-0.54,0.123-0.813c0.02-0.235,0.02-0.47,0.018-0.707
				c-0.002-0.277-0.01-0.551-0.041-0.826c-0.011-0.102,0-0.204-0.015-0.305c-0.064-0.419-5.765-42.056,46.255-60.637
				c12.584-4.495,27.204-10.572,42.681-17.006c57.99-24.11,130.161-54.111,178.676-38.464c25.365,8.182,45.144,18.551,59.682,27.957
				c-10.625-3.231-17.583-4.972-18.734-5.254c-4.196-1.039-8.422,1.534-9.455,5.723c-1.03,4.19,1.532,8.424,5.722,9.456
				c1.107,0.272,101.688,25.494,152.49,74.764l-19.843-2.089c-3.409-0.345-6.608,1.518-7.974,4.631
				c-1.369,3.114-0.565,6.756,1.987,9.006c0.855,0.756,85.644,76.265,89.595,143.422C986.827,405.24,963.76,460.247,939.721,469.15z
				"/>
		</g>
		<g>
			<circle fill="#312D3D" cx="565.949" cy="483.399" r="13.564"/>
			<circle fill="#312D3D" cx="803.038" cy="483.399" r="13.564"/>
		</g>
	</g>
</g>
</svg>
